/* XPM */
static char *down_3[] = {
/* columns rows colors chars-per-pixel */
"32 32 194 2 ",
"   c black",
".  c #1C1600",
"X  c #181008",
"o  c #3B0700",
"O  c #201700",
"+  c #241D00",
"@  c #241816",
"#  c #232000",
"$  c #2B2300",
"%  c #322903",
"&  c #3A3404",
"*  c #342817",
"=  c #181A20",
"-  c #1E202A",
";  c #242628",
":  c #352524",
">  c #392624",
",  c #3B2827",
"<  c #312829",
"1  c #3D2C2B",
"2  c #2C3336",
"3  c #303333",
"4  c #650000",
"5  c #6A0000",
"6  c #443806",
"7  c #433C0B",
"8  c #472D29",
"9  c #412E2C",
"0  c #42312F",
"q  c #412E35",
"w  c #443231",
"e  c #4D3A34",
"r  c #49470C",
"t  c #494712",
"y  c #161A53",
"u  c #343644",
"i  c #3E3D45",
"p  c #00377A",
"a  c #2A2F6F",
"s  c #413F46",
"d  c #4E3A42",
"f  c #543E48",
"g  c #413957",
"h  c #3C456C",
"j  c #434146",
"k  c #45434A",
"l  c #49464C",
"z  c #594447",
"x  c #494755",
"c  c #474855",
"v  c #4B4E54",
"b  c #524B56",
"n  c #534F54",
"m  c #575653",
"M  c #595759",
"N  c #614645",
"B  c #67474C",
"V  c #664B4A",
"C  c #775647",
"Z  c #704F54",
"A  c #645654",
"S  c #705654",
"D  c #785654",
"F  c #795A5C",
"G  c #4F4F60",
"H  c #535160",
"J  c #575A60",
"K  c #5E5A60",
"L  c #5E5A69",
"P  c #544A7B",
"I  c #625974",
"U  c #5A6267",
"Y  c #626264",
"T  c #656A6C",
"R  c #68686C",
"E  c #7F726E",
"W  c #7F786E",
"Q  c #6A6D74",
"!  c #6B7678",
"~  c #7F7276",
"^  c #767679",
"/  c #7E797A",
"(  c #AA0000",
")  c #B60000",
"_  c #802A00",
"`  c #843200",
"'  c #FF0B14",
"]  c #FF3132",
"[  c #A84C1F",
"{  c #95582E",
"}  c #9C583A",
"|  c #A7562E",
" . c #976A3D",
".. c #8B5343",
"X. c #88545C",
"o. c #955E51",
"O. c #9D6844",
"+. c #9D704C",
"@. c #A2654E",
"#. c #AA7E5A",
"$. c #866E69",
"%. c #86726E",
"&. c #87786E",
"*. c #89796E",
"=. c #8F7772",
"-. c #867975",
";. c #8A7B75",
":. c #877B78",
">. c #8B7E7A",
",. c #967F79",
"<. c #987F79",
"1. c #C79000",
"2. c #DDAC00",
"3. c #FAB800",
"4. c #FDC200",
"5. c #FFF100",
"6. c yellow",
"7. c #B4855D",
"8. c #8E827C",
"9. c #94817C",
"0. c #9B827D",
"q. c #BA8B67",
"w. c #EA926E",
"e. c #F1906E",
"r. c #F19677",
"t. c #FFAA7C",
"y. c #004A86",
"u. c #035693",
"i. c #035F9F",
"p. c #0055A3",
"a. c #106EB7",
"s. c #5F6789",
"d. c #797B83",
"f. c #7070A1",
"g. c #0071CB",
"h. c #0077FE",
"j. c #7C8188",
"k. c #768290",
"l. c #1393E0",
"z. c #0084F1",
"x. c #0799F6",
"c. c #119FF5",
"v. c #8F8683",
"b. c #8F8883",
"n. c #928683",
"m. c #9E8B85",
"M. c #8C8E94",
"N. c #928A9D",
"B. c #949696",
"V. c #A48C85",
"C. c #A48F8A",
"Z. c #A5938D",
"A. c #A8968F",
"S. c #A99691",
"D. c #A99A95",
"F. c #AB9897",
"G. c #9A83A1",
"H. c #B89DB4",
"J. c #A3A3A4",
"K. c #B7A8A3",
"L. c #B7B7BB",
"P. c #FFAC84",
"I. c #FABE93",
"U. c #C3ACA5",
"Y. c #D0AFA4",
"T. c #C7B1A9",
"R. c #CBB5AD",
"E. c #CEB9B1",
"W. c #D2BAB2",
"Q. c #FDC893",
"!. c #CEC4BB",
"~. c #D9C1B8",
"^. c #FFCCA2",
"/. c #FFD4A5",
"(. c #FFD9B2",
"). c #FFE2AF",
"_. c #FFEEB5",
"`. c #FFECB8",
"'. c #FFF0B5",
"]. c #FFF2BD",
"[. c #C5C5CA",
"{. c #C8CBD7",
"}. c #D0D0D6",
"|. c #FFF4C5",
" X c #FFFCC5",
".X c #FFFFD2",
"XX c #FFFFDA",
"oX c #C2CAEC",
"OX c #D5D9E7",
"+X c #E5E5E9",
"@X c #FBECE6",
"#X c #EBECF7",
"$X c #F7F5F8",
"%X c #FFFFFF",
/* pixels */
"l E E E E E E J l 8.1 e w 0 9.M m 9 w e w 8.-.;.K v A.m.Z.-.n n ",
"&.E E E E E E 8.v 8.8.0 C.S , 9 : ~.m.D 9 9 1 w e 8 k j s c n v ",
"S.E E E E E W , e 9 1 w S 0.0.V W.=.B : 0.0.S w e T >.&.*.J K k ",
"j A.E E E E =.U e F V.S , N E.*.=.N ,.%.E.=.0.S 0 9 , >.E W &.J ",
"v k A.m.C.%.K 1 w 1 V =.=.=.$.R.=.=.=.R.=.V @ ~.0.V.D : E E E %.",
"n n H v G K 9 D 0.0.=.T.T.=.=.=.=.=.=.$.=.*.W.=.V : 1 8.E E %.;.",
"l J &.E 9.9 F 1 V =.=.=.=.=.=.%.T.=.8.E.$.=.=.z 0.0.S : D.W ;.k ",
"A.~ W W > w w S =.R.=.=.$.R.=.U.U.9.5 M W.=.9.=.z 0.m.S , v v l ",
"A.E E E -.8., <.R.=.=.=.R.=.z E.&.U ) 4 8.8.4 !.=.Z > C.D , M l ",
"j A.E E %.> S =.=.z 9.A =.n.5 8.b.( ] ( U M.5 8.W.V S 1 , 8.*.K ",
"n k Z.C.F.: m.<.N 9.n.4 v.x ) b.j ' ' ' ( B.4 A =.V V., v.W &.K ",
"K M G J > C.S V 0.;.d ].f XX.X<  X]. XXX].z '.f 0.N S V.: ;.J l ",
"E E E :.0 1 t S 9.e ).. r . ].].).).].X & # /.w.l t.< F 9 ,.i -.",
"E E E -.> b.t S m.z Q.%X  %X).).).).).%X  %XQ.w.b P.r q e s A.E ",
"E E E E ~ :.q r S  .I.%X  N._.).).).'.M.  %XI. .A 6 q K.> S.E E ",
"E E E E E ;.w F S +.Q.%Xo o  X(.).).|.o o %XQ.+.Z F w v x Z.E E ",
"E E E E *.M 8 F 1 % e./.` _ |.).).).|.5 ` /.r.% 1 F 9 M Y i A.E ",
"E E E *.l x R 3 j.d.+ r.(..X`.).).).]..X(.r.# d.j.3 L *.*.K i A.",
"A.Z.A.s K 8.3 ^ Y [.{.+ O.w.^.^.Q.^./.w.O.. }.[.Y / 3 &.E %.J s ",
"k k j %.E -.; }.#X+X#X{.O + + $ % $ # # . {.$XL.%XJ.3 ;.E E &.J ",
"M n l Z.E -.3 J.L.$X^ $X%X%X#XoXs.oX#X%X%X$X^ B.B.^ 2 :.E E E &.",
"Y n l Z.~ -.= R M T X p @X%X%X3.1.3.%X%X@Xp @ m n 2 @.6 ~ E E E ",
"l K K i Z.F.6 A.Y.R ; u.u.%Xg.h.6.h.g.%Xu.u.> ; r @.o.& ~ E E *.",
"K &.E &.G k 6 7.7.W.6 } y.p.l.z.5.z.l.i.y.} ; M.j.6 % OXT E =.k ",
"&.E E E E >.7 q.7.7.7 p.{ | [ v.f.v.[ | { u.j = d.^ {.L.[.^ k l ",
"E E E E E ~ & C q.o.* M a.c.x.P 5.P x.c.a.A i - v.Q [.+XL.^ j *.",
"E E E E E E d.% $ # 4.h n g P 6.a 6.P I I a 4.& d.^ K $X[.^ j Z.",
"E E E E E E T %X%X%X. 3.2.6.6.y u y 6.6.5.6.* k.^ ^ Q {.T n k C.",
"E E E E E ~ R %X%X%XQ * X.X.X.6 M.& G.H.G.B k.*.j M E ! W %.G Z.",
"A.E E ~ C.Z.i M %XM ^ F.6 t 7 n.i S #.#...7 v n v %.E E E E &.i ",
"j A.C.Z.i k n j ^ j H H L n n n b C #.#.q.& L v l Z.E E E E %.c ",
"n j H v &.*.K K x A >.>.,.K K b b n./ :./ ~ =.K l Z.E E E E ;.n "
};
