/* XPM */
static char *down_1[] = {
/* columns rows colors chars-per-pixel */
"32 32 191 2 ",
"   c black",
".  c #1C1600",
"X  c #181008",
"o  c #3B0700",
"O  c #201700",
"+  c #241D00",
"@  c #241816",
"#  c #232000",
"$  c #2B2300",
"%  c #342A00",
"&  c #3E3505",
"*  c #3A3508",
"=  c #342816",
"-  c #191B20",
";  c #241F20",
":  c #1E202A",
">  c #242628",
",  c #352524",
"<  c #392624",
"1  c #3B2827",
"2  c #312829",
"3  c #3D2C2B",
"4  c #3B2735",
"5  c #2C3336",
"6  c #303333",
"7  c #650000",
"8  c #6A0000",
"9  c #453907",
"0  c #453C0B",
"q  c #472D29",
"w  c #412E2C",
"e  c #42312F",
"r  c #412E35",
"t  c #443231",
"y  c #4D3A34",
"u  c #49470C",
"i  c #161A53",
"p  c #343644",
"a  c #3E3D46",
"s  c #00377A",
"d  c #2A2F6F",
"f  c #413F46",
"g  c #4E3A42",
"h  c #543E48",
"j  c #3C456C",
"k  c #444246",
"l  c #45434A",
"z  c #4A464C",
"x  c #594447",
"c  c #494655",
"v  c #4B4E54",
"b  c #4E4E58",
"n  c #534F54",
"m  c #524C58",
"M  c #575653",
"N  c #585759",
"B  c #614645",
"V  c #66474C",
"C  c #664B4A",
"Z  c #77584A",
"A  c #704F54",
"S  c #645654",
"D  c #705654",
"F  c #785654",
"G  c #795A5C",
"H  c #535160",
"J  c #565A60",
"K  c #5E5A60",
"L  c #544A7B",
"P  c #625974",
"I  c #5A6267",
"U  c #626264",
"Y  c #63656A",
"T  c #6A6D6F",
"R  c #7F756B",
"E  c #7F726E",
"W  c #6B6E76",
"Q  c #6D7678",
"!  c #767679",
"~  c #797779",
"^  c #AA0000",
"/  c #B60000",
"(  c #802A00",
")  c #843200",
"_  c #FF0B14",
"`  c #FF3132",
"'  c #A84C1F",
"]  c #95582E",
"[  c #9C583A",
"{  c #A7562E",
"}  c #976A3D",
"|  c #8B5343",
" . c #88565D",
".. c #955E51",
"X. c #9D6844",
"o. c #9D704C",
"O. c #A97E5A",
"+. c #866E69",
"@. c #86726E",
"#. c #87786E",
"$. c #89796E",
"%. c #8F7772",
"&. c #867A76",
"*. c #8A7B75",
"=. c #867A79",
"-. c #8A7D7B",
";. c #967F79",
":. c #987F79",
">. c #C79000",
",. c #DDAC00",
"<. c #FAB800",
"1. c #FDC200",
"2. c #FFEF00",
"3. c #FFF100",
"4. c yellow",
"5. c #B6865D",
"6. c #8F827C",
"7. c #94817C",
"8. c #9B827D",
"9. c #BA8B67",
"0. c #EA926E",
"q. c #F1906E",
"w. c #F19677",
"e. c #004A86",
"r. c #035693",
"t. c #035F9F",
"y. c #0055A3",
"u. c #106EB7",
"i. c #5F6789",
"p. c #797B85",
"a. c #7070A1",
"s. c #0071CB",
"d. c #0077FE",
"f. c #7E8187",
"g. c #1393E0",
"h. c #0084F1",
"j. c #0799F6",
"k. c #119FF5",
"l. c #8F8683",
"z. c #8C8986",
"x. c #988782",
"c. c #9F8E89",
"v. c #8C8E95",
"b. c #928A9D",
"n. c #949696",
"m. c #A48C85",
"M. c #A08F8A",
"N. c #A98F89",
"B. c #A4928C",
"V. c #A8968F",
"C. c #AA9592",
"Z. c #A99995",
"A. c #9A83A1",
"S. c #B89DB4",
"D. c #A3A3A4",
"F. c #B7A8A3",
"G. c #B7B7BB",
"H. c #FFAC84",
"J. c #FABE93",
"K. c #C3ACA5",
"L. c #D0AFA4",
"P. c #C7B1A9",
"I. c #CBB5AD",
"U. c #CEB9B1",
"Y. c #D2BAB2",
"T. c #FDC893",
"R. c #CEC4BB",
"E. c #D9C1B8",
"W. c #FFCCA2",
"Q. c #FFD4A5",
"!. c #FFD9B2",
"~. c #FFE2AF",
"^. c #FFEEB5",
"/. c #FFECB8",
"(. c #FFF0B5",
"). c #FFF2BD",
"_. c #BDBDC2",
"`. c #C4C5CA",
"'. c #C9CBD7",
"]. c #D0D0D6",
"[. c #FFF4C5",
"{. c #FFFCC5",
"}. c #FFFFD2",
"|. c #FFFFDA",
" X c #C2CAEC",
".X c #D5D9E7",
"XX c #E5E5E9",
"oX c #FBECE6",
"OX c #EBECF7",
"+X c #F7F5F8",
"@X c #FFFFFF",
/* pixels */
"l @.E E E E E J z 6.3 y t e 7.K n 3 e y t 6.&.-.N b B.c.c.#.n n ",
"E E E E E E E 6.v 6.6.e B.D 1 w , E.8.F w 3 3 t y q l l l c n v ",
"M.E E E E E R 1 y w 3 e D 8.8.C Y.%.C , 8.8.D t y Y 6.#.&.N N z ",
"l V.E E E E *.I y G m.D < B U.$.%.B ;.%.U.%.8.D e e 1 -.R @.*.J ",
"n l B.M.B.@.K w t 1 C %.%.%.@.I.%.%.%.I.%.C @ E.8.m.F , E E E #.",
"n n H b b K w F 8.8.%.I.P.%.%.%.%.%.%.+.%.%.Y.%.C , 3 6.E E E *.",
"z J #.E 6.w +., C %.%.%.%.%.%.+.I.%.7.Y.+.%.%.B 8.8.D < Z.@.*.l ",
"c.@.E E < t w D %.I.%.%.+.I.*.K.K.6.7 M U.%.6.%.B 7.x.D 1 v v z ",
"c.E E E =.l.1 ;.I.%.%.%.I.%.C I.&.I / 7 l.l.7 R.$.D , N.F 3 K l ",
"l B.E E E < D %.%.B ;.S %.l.7 7.z.^ ` ^ I z.8 7.Y.C D 3 1 -.$.K ",
"b l B.c.Z., x.;.x ;.l.7 l.c / l.k _ _ _ ^ n.7 N %.C m., l.E $.K ",
"N K H J < N.D A :.%.g {.h |.}.2 {.).{.|.(.x ^.x :.C D N.< *.J z ",
"@.E E -.e 3 u D :.h ~.. u . ).).~.~.).X * # Q.0.z H.2 G w 7.a $.",
"E E E &.< l.u D 8.h T.@X  @X~.~.~.~.~.@X  @XT.0.m H.u t t l V.E ",
"E E E E E =.r u D } T.@X  b.^.~.~.~.(.v.  @XJ.} A * 4 F.< V.E E ",
"E E E E E -.e G D o.T.@Xo o {.!.~.~.[.o o +XT.o.D G t v c V.E E ",
"E E E E %.N e  .3 % q.Q.) ( [.~.~.~.[.8 ) Q.q.% 3 G 3 N U k B.@.",
"E E E *.l c Y 6 f.p.# w.!.}./.~.~.!.).}.!.w.# p.f.6 N 6.#.J f V.",
"M.B.B.f J 7.6 p.U `.'.. X.0.W.W.W.T.Q.0.X.O '.`.U ~ 6 #.E @.J f ",
"z l l @.R &.6 D.@XG.+X'.O + + $ % $ # # O '.OXXXOX].2 #.E E @.J ",
"N n z B.E =.5 ! n.n.~ +X@X@XOX Xi. XOX@X@X+X! +X_.D.6 &.E E E &.",
"K n z V.E 9 X.5 J M @ s oX@X@X<.>.<.@X@XoXs X Y N T - =.E E E R ",
"n N K a C.& ....9 > 2 r.r.@Xs.d.4.d.s.@Xr.r.; T L.C.9 =.E E E $.",
"J #.E E Y .X% & z.n.> [ e.t.g.d.3.h.g.t.e.[ 9 Y.O.O.9 ~ E R $.l ",
"@.E E W `.G.'.! f.- k r.] { ' l.a.l.' { ] y.0 5.O.9.0 Z.M.#.l z ",
"E E E T _.XX`.W f.: a M u.k.j.L 3.L j.j.u.N 0 ..9.Z 0 c c v b #.",
"E E E W `.OXU ! p.* 1.d P P L 4.d 3.i.p c j 1.# $ % p.K K n z B.",
"E E E E U ].! ! ! p.= 4.2.4.4.i p i 4.4.,.<.O @X@X@XY @.*.N l c.",
"E E E E +.Q N z l V.p.V A.S.A.& b.0  .G  .* W @X@X@XI E @.@.b B.",
"B.E E E M.V.z n n l Z.* | O.O.Z c H 0 0 0 v p.N @Xb @.E E E &.a ",
"l B.B.B.a l n n n n N * 9.5.5.Z b K =.=.=.J K f T x.E E E E @.v ",
"n l b b $.*.K N b K 6.l.=.H H v m ;.=.=.&.@.#.K f V.E E E +.&.n "
};
