/* XPM */
static char *down_2[] = {
/* columns rows colors chars-per-pixel */
"32 32 184 2 ",
"   c black",
".  c #150D00",
"X  c #1C1600",
"o  c #3B0700",
"O  c #221700",
"+  c #241D00",
"@  c #231815",
"#  c #232000",
"$  c #2C2400",
"%  c #332A04",
"&  c #3B3505",
"*  c #312911",
"=  c #1A1E26",
"-  c #1D2125",
";  c #1E2234",
":  c #2D262D",
">  c #352523",
",  c #352726",
"<  c #3C2826",
"1  c #3C2C2B",
"2  c #2D302F",
"3  c #222734",
"4  c #2F3130",
"5  c #333535",
"6  c #650000",
"7  c #6A0000",
"8  c #413905",
"9  c #443C0C",
"0  c #463A10",
"q  c #412D2A",
"w  c #44312E",
"e  c #422F36",
"r  c #443331",
"t  c #4D3732",
"y  c #443139",
"u  c #4D3B39",
"i  c #4A440C",
"p  c #484512",
"a  c #534710",
"s  c #161954",
"d  c #363946",
"f  c #3E3D45",
"g  c #00377A",
"h  c #212274",
"j  c #443E45",
"k  c #543E48",
"l  c #403D57",
"z  c #3B446B",
"x  c #444246",
"c  c #4B4444",
"v  c #45434A",
"b  c #49464C",
"n  c #594447",
"m  c #4A4955",
"M  c #4B4E54",
"N  c #534F54",
"B  c #534D5B",
"V  c #575759",
"C  c #614645",
"Z  c #664B4A",
"A  c #6C4E4B",
"S  c #60564F",
"D  c #704F54",
"F  c #645654",
"G  c #705654",
"H  c #79595A",
"J  c #7F615F",
"K  c #525160",
"L  c #575A60",
"P  c #5E5A61",
"I  c #5E5A6C",
"U  c #53497B",
"Y  c #635A6E",
"T  c #576261",
"R  c #5E6272",
"E  c #67686B",
"W  c #7F726E",
"Q  c #7F766C",
"!  c #686B78",
"~  c #6D7678",
"^  c #7A7678",
"/  c #AA0000",
"(  c #B60000",
")  c #802A00",
"_  c #843200",
"`  c #FF0B14",
"'  c #FF3132",
"]  c #A84C1F",
"[  c #95582E",
"{  c #AB5529",
"}  c #A05837",
"|  c #976A3D",
" . c #8B544A",
".. c #935E4A",
"X. c #985E51",
"o. c #9D6844",
"O. c #9D704C",
"+. c #AB7E5D",
"@. c #866E69",
"#. c #87726E",
"$. c #87786E",
"%. c #88796E",
"&. c #867275",
"*. c #8F7772",
"=. c #867A75",
"-. c #897B75",
";. c #8A7D7A",
":. c #967F79",
">. c #987F79",
",. c #C79000",
"<. c #EBB300",
"1. c #FFB700",
"2. c #FFC500",
"3. c #FFEC00",
"4. c #FFF100",
"5. c #FFFE00",
"6. c #B0875D",
"7. c #8F827C",
"8. c #94817C",
"9. c #9B827D",
"0. c #B98C6A",
"q. c #C1906E",
"w. c #EA926E",
"e. c #F1906E",
"r. c #F19677",
"t. c #FFAA7C",
"y. c #004A86",
"u. c #035693",
"i. c #0055A1",
"p. c #106EB8",
"a. c #5F6789",
"s. c #767987",
"d. c #7070A1",
"f. c #0071CB",
"g. c #0077FE",
"h. c #897D80",
"j. c #7F8487",
"k. c #768090",
"l. c #1393E0",
"z. c #0084F1",
"x. c #099BF5",
"c. c #8F8582",
"v. c #8F8A84",
"b. c #9A8984",
"n. c #938999",
"m. c #949696",
"M. c #A48B85",
"N. c #A08F8A",
"B. c #A5938D",
"V. c #A9958E",
"C. c #A89690",
"Z. c #AA9894",
"A. c #B99C9B",
"S. c #B2A09A",
"D. c #9F87A5",
"F. c #B89DB5",
"G. c #ABABAD",
"H. c #B7B7BB",
"J. c #FFAC84",
"K. c #FABE93",
"L. c #C3ACA5",
"P. c #C7B1A9",
"I. c #CBB5AD",
"U. c #CEB9B1",
"Y. c #D5BBB2",
"T. c #FDC893",
"R. c #CEC4BB",
"E. c #D7C0B7",
"W. c #FFCCA2",
"Q. c #FFD4A5",
"!. c #FFD9B2",
"~. c #FFE2AF",
"^. c #FFEDB7",
"/. c #FFF2BB",
"(. c #C5C5CA",
"). c #C7CBD9",
"_. c #FFF4C5",
"`. c #FFFCC5",
"'. c #FFFFD2",
"]. c #FFFFDA",
"[. c #C2CAEC",
"{. c #F2EBF0",
"}. c #F8F4F8",
"|. c #FFFFFF",
/* pixels */
"b W W W W W W P N 7.7.1 M.G q r * U.*.D q r u u u q B.b.B.$.N N ",
"$.W W W W W Q < u w < 1 G 9.>.Z Y.:.Z > 9.9.G r u V M v v m N M ",
"C.W W W W W W c.r H M.G , C U.%.*.n :.*.U.*.9.G 1 w 1 8.=.V V b ",
"x C.W W W W ;.1 1 1 Z *.*.*.#.I.*.*.*.I.*.Z @ E.9.M.H > Q #.-.L ",
"M v B.N.B.;.< H M.>.*.P.P.*.*.*.*.*.*.@.*.*.Y.*.Z < 1 c.Q W W =.",
"N N K K V q H 1 A *.*.*.*.*.*.@.P.*.8.U.@.*.*.C 9.9.G < ;.W #.-.",
"b V $.=.< w r G *.I.*.*.@.I.*.P.L.8.7 V U.*.7.*.n 9.9.G > 7.=.v ",
"C.Q W #.=.c.1 >.I.*.*.*.I.*.n I.&.T ( 6 7.c.6 R.*.D < M.G < M b ",
"C.W W W =.< G *.*.C >.F *.v.7 8.c./ ' / T v.7 7.U.A G 1 < 7.V b ",
"v C.W W ;.> b.>.C >.c.6 c.b ( v.v ` ` ` / m.7 F %.Z M.< c.W %.P ",
"N v B.C.> V.G Z :.*.j /.k ].'.: `.`.`.]./.b ^.j 9.n G V.> =.$.P ",
"P L K L r r p G :.n ~.+ 9 . _./.~.~./.. & $ Q.w.n t.: H q ;.L b ",
"W W W =.< R a G 9.k T.|.  |.~.~.~.~.~.|.  |.T.w.N J.9 y w ;.j %.",
"W W W W $.;.e i G | K.|.  n.^.~.~.~./.n.  |.K.| F & y c.q v C.W ",
"W W W W W =.1 H G O.T.|.o o `.~.~.~.`.o o |.T.O.G H 1 S.v C.W W ",
"W W W W W =.q J 1 & e.Q._ ) _.~.~.^.`.7 _ Q.e.% 1 J w M b B.W W ",
"W W W W -.V N q j.s.# r.!.].^.~.~.~.^.'.!.r.# s.v.1 N Y F x C.W ",
"W W W -.v m I 2 E (.).+ o.w.W.W.T.W.Q.w.o.X ).(.E 2 V %.$.L x B.",
"B.B.B.f V 8.4 G.(.H.}.).X # + $ % $ + + O ).}.H.(.G.5 $.W #.L x ",
"v v v #.#.=.5 ^ |.m.^ }.|.|.{.[.a.[.{.|.|.|.^ m.|.~ 5 -.W W #.L ",
"V N c B.@.=.= 4 x V @ g {.|.|.1.,.1.|.|.{.g @ V x 5 = ;.W W W $.",
"Y N b C.^ h.9 A.E c , u.u.|.f.g.5.g.f.|.u.u., x E A.8 h.W W W W ",
"b P V x S.& ..+.Y.- 2 } y.i.l.z.4.z.l.i.y.} : - E.6...& ^ W W $.",
"P $.Q $.K & 0.6.o.3 c i.[ { ] c.d.c.] { [ u.c 3 ..6.0.& &.W =.v ",
"$.W W W =.& X...% ; d S p.x.x.U 5.U x.x.p.V d ; % ..X.9 Z.$.b b ",
"W W W W #.h.& X |.$ 2.z l Y U 5.h 5.U Y l z 2.$ |.O 8 B m N M $.",
"W W W W W W ! |.|.! * <.5.3.5.s d s 5.3.5.<.* ! |.|.! V P N b B.",
"W W W W W W E |.|.E k.* D.F.D.9 a 0 D.F.D.* s.E |.|.E W $.P v N.",
"W W W W W W M P |.E &.9  .+.A i n.9 D +. .9 Z.E |.V W W W #.K B.",
"Z.W W W B.B.b c ^ j Z.8 q.0.X.i B 9 X.0.q.9 m j ~ Q W W W W $.f ",
"v B.b.C.f v N N N N Y Y 9 p i B N R a p i I V M x M.W W W W #.m ",
"N v K M $.$.P P N V q t y y R N N w y u y 7.8.I M Z.W W W W =.N "
};
