/* XPM */
static char *exit[] = {
/* columns rows colors chars-per-pixel */
"32 32 241 2 ",
"   c #060606",
".  c gray5",
"X  c gray9",
"o  c #181818",
"O  c #191919",
"+  c gray10",
"@  c #1B1B1B",
"#  c gray11",
"$  c #1D1D1D",
"%  c #1E1E1E",
"&  c gray12",
"*  c #202020",
"=  c gray13",
"-  c #222222",
";  c #232323",
":  c gray14",
">  c gray15",
",  c #272727",
"<  c #282828",
"1  c gray16",
"2  c #2A2A2A",
"3  c gray17",
"4  c #2C2C2C",
"5  c #2D2D2D",
"6  c gray18",
"7  c #2F2F2F",
"8  c gray19",
"9  c #313131",
"0  c #323232",
"q  c gray20",
"w  c #343434",
"e  c #353535",
"r  c gray21",
"t  c #373737",
"y  c gray22",
"u  c #393939",
"i  c #3A3A3A",
"p  c gray23",
"a  c #3C3C3C",
"s  c gray24",
"d  c #3E3E3E",
"f  c #3F3F3F",
"g  c #3C3940",
"h  c #403C43",
"j  c #423E44",
"k  c gray25",
"l  c #414141",
"z  c #414341",
"x  c gray26",
"c  c #434343",
"v  c #444047",
"b  c #444444",
"n  c gray27",
"m  c #464646",
"M  c gray28",
"N  c #474248",
"B  c #484848",
"V  c #494949",
"C  c gray29",
"Z  c #4B4B4B",
"A  c #4B4C4B",
"S  c #4A4C4C",
"D  c #4C4C4C",
"F  c gray30",
"G  c #4D4D4E",
"H  c #4D4E4E",
"J  c #4E4E4E",
"K  c gray31",
"L  c #4A4851",
"P  c #4C4953",
"I  c #4F4C55",
"U  c #504D55",
"Y  c #534F54",
"T  c #514E58",
"R  c #505050",
"E  c #515151",
"W  c #515252",
"Q  c gray32",
"!  c #535353",
"~  c #535254",
"^  c gray33",
"/  c #555555",
"(  c #565656",
")  c gray34",
"_  c #535058",
"`  c #575658",
"'  c #585858",
"]  c gray35",
"[  c #59595A",
"{  c #5A5A5A",
"}  c #5A5B5A",
"|  c #5A5A5B",
" . c #5B5B5B",
".. c gray36",
"X. c #5D5D5D",
"o. c gray37",
"O. c #5F5F5F",
"+. c #5E5360",
"@. c #5F6060",
"#. c #606060",
"$. c #606161",
"%. c gray38",
"&. c #616162",
"*. c #616262",
"=. c #626262",
"-. c #626363",
";. c gray39",
":. c #646464",
">. c #646565",
",. c #656565",
"<. c gray40",
"1. c #676767",
"2. c #686868",
"3. c #686869",
"4. c DimGray",
"5. c #696A6A",
"6. c #6A6A6A",
"7. c #6A6B6B",
"8. c gray42",
"9. c #6B6C6C",
"0. c #6C6C6C",
"q. c #6C6C6D",
"w. c #6C6D6D",
"e. c #6D6D6D",
"r. c gray43",
"t. c #6E6F6F",
"y. c #6F6F6F",
"u. c #756661",
"i. c #756762",
"p. c #776863",
"a. c #786964",
"s. c #7F6965",
"d. c #7F6A65",
"f. c #7F7266",
"g. c #7F7267",
"h. c #7F726E",
"j. c gray44",
"k. c #717171",
"l. c #727272",
"z. c gray45",
"x. c #747474",
"c. c gray46",
"v. c #767676",
"b. c #777777",
"n. c #737379",
"m. c gray47",
"M. c gray48",
"N. c #7B7B7B",
"B. c #7C7C7C",
"V. c gray49",
"C. c #7E7E7E",
"Z. c gray50",
"A. c #8B7A6E",
"S. c #818181",
"D. c gray51",
"F. c #838383",
"G. c #848484",
"H. c #868686",
"J. c #868687",
"K. c #868787",
"L. c gray53",
"P. c #808888",
"I. c #888888",
"U. c #888988",
"Y. c #898989",
"T. c gray54",
"R. c #8B8B8B",
"E. c #888E88",
"W. c gray55",
"Q. c #8D8D8D",
"!. c #8E8E8E",
"~. c #8E8F8F",
"^. c gray56",
"/. c #8C8C92",
"(. c #8F9190",
"). c #909090",
"_. c #909190",
"`. c gray57",
"'. c #929292",
"]. c #939393",
"[. c gray58",
"{. c #959595",
"}. c #959696",
"|. c #959797",
" X c #989898",
".X c gray60",
"XX c #9A9A9A",
"oX c #9B9B9B",
"OX c #9D9D9D",
"+X c gray62",
"@X c #9F9F9F",
"#X c #A28E87",
"$X c #A1A0A0",
"%X c gray63",
"&X c #A2A2A2",
"*X c gray64",
"=X c #A5A5A5",
"-X c gray65",
";X c #A7A7A7",
":X c gray66",
">X c #A9A9A9",
",X c #A8AAAA",
"<X c #AAAAAA",
"1X c gray67",
"2X c #ACABAB",
"3X c #ACACAC",
"4X c #AEAEAE",
"5X c #AEAFAE",
"6X c #AFAFAF",
"7X c #AFB1B1",
"8X c gray69",
"9X c #B1B1B2",
"0X c #B2B1B3",
"qX c #B0B2B2",
"wX c #B2B2B2",
"eX c gray70",
"rX c #B1B3B4",
"tX c #B2B3B4",
"yX c #B2B4B4",
"uX c #B4B4B4",
"iX c gray71",
"pX c #B4B6B6",
"aX c #B5B6B6",
"sX c #B6B6B6",
"dX c #B7B7B7",
"fX c #B5B7B8",
"gX c gray72",
"hX c #B8B9B8",
"jX c #B9B9B9",
"kX c gray73",
"lX c #BBBBBB",
"zX c #BCBCBC",
"xX c #BDBEBD",
"cX c #BCBEBE",
"vX c #BDBFBF",
"bX c gray",
"nX c gray75",
"mX c #C0C1C0",
"MX c #C1C1C1",
"NX c #C2C3C2",
"BX c #C5C5C5",
/* pixels */
"z 3.t.@.&.q.W H 9.$.$.$.$.w.~ G 7.$.$.$.$.9.` S 6.*.$.$.>.5.[ Z ",
"-.`.4X9X3XsXI.F.uX<X<X<X,XiX(.S.8X<X<X<X,X0X XC.7X2X<X3X;XJ.y.| ",
"U.^.B..X.X*Xx.x.1X.X@X@X$X;Xv.l.:X@X@X@X%X=XM.e.;X&X.X=XW.F.{.D ",
"C.gXO.& c ( 9 t 6.<.<.<.1.=.8 q 2.<.<.<.1.;.e 7 1.1.<.( m.wXR.Z ",
"Z.bX4.* a Z s u ! R R R R ^ s y Q R R R R Q l 6 E E R x r.kXW.F ",
"x.3X;.< r d t w x k l l k x r 0 k k l l k l u 9 a s s a ;.;XD.V ",
"A M.B % 7 7 7 9 0 9 6 7 w 5 e e e w 7 6 w e 8 2 i w 7 - q b.6.p ",
"V.bX%.& a i u f M V y a #.R Q Q Q ( u i o...p / MX'.b.J c kX[.^ ",
"Z.zX=.% d a p p l Z i a ] B C C C F p p Q F 5 ' >X1.l.E l jX!.D ",
"V.gX%.% u y y t t f t w b l x l l b t 9 x c 1 ^ XX8.y.R k iXW.D ",
"Z.nX;.o 8 7 6 6 7 7 7 7 9 9 7 7 q 8 2 8 3 q @ K ].6.0.D x zX[.J ",
"c.6XX.; p i 0 9 i u u d m V y p =.p ( =X#.! x 0 ,.O.=.k k <XT.C ",
"S N.K > p a q 0 a p p p k Q i s X.4 ) ].J ) k R  X8.r.Q 8 b.8.a ",
"D.iXO.X w u 0 9 u y y y t k t e m e m 2.^ ) y ! +Xe.j.R k wX!.Z ",
"R.bX;.X 6 5 6 7 7 7 6 6 6 9 3 8 9 ; c 4.Q { s Q .Xe.y.K l lX!.J ",
"I.gX=.O 5 5 q i i p q 0 8 n k.D n i 3 l e d = ^ +Xr.j.R k iXW.D ",
"R.nX;.O 4 q q 0 i i q 0 8 B 6.B B u x 8.Q ! s K [.8.e.F x zX{.F ",
"G.sXO.O 6 6 6 5 5 5 5 5 2 k ^ M V u n k.( ' b 0 <.#.=.d c eX!.! ",
"} N.R & 5 4 4 5 5 6 6 5 2 a J m B y b e.^ ( f F `.4.0.E 7 v.8.i ",
"S.wXo.+ 6 5 5 2 d ) d y w 8 t r r > n y./ ' t ! @Xr.j.R f 4XW.Q ",
"R.zX;.o 6 5 5 2 l F p p 0 a F b m t x 0.Q ^ s C .Xe.y.J k kXQ.J ",
"I.gX=.X 5 5 5 3 p m i p 0 d Q B C a 3 x k k : ^ +Xe.j.R k iXW.D ",
"Y.zX=.X 6 5 5 4 u x u i 9 s E M B u f :.J R q E oX8.x.K x dXQ.D ",
"~.nX%., m w 0 8 7 8 7 7 3 d E M V y n z.( ] b 0 ,.#.=.d b kX{.^ ",
"' M.n r l q q 8 t d t y 9 s ) M B t n e.^ ) f F ).6.0.E 7 v.6.p ",
"Z.4X .; i q q 7 i b i p w 9 u t t : m j./ ' y Q OXe.y.R d >XR.C ",
"R.nX=.= y q w 7 i b i p 0 i Z c b r n l./ o.d ! OXy.k.R x zX[.J ",
"P.gX=.O 8 5 5 3 u x u i 8 d o.V R a w c f k , ! -X0.N.K l iXW.D ",
"I.zX%.  $ + % % $ & # $ + $ : - * & o X O O + : 4 - < . f lXW.D ",
"}.`.b.R.I.!.y.8.!.Z.L.L.H.Q.r.4.R.H.I.L.L.Q.n.,.D.C.V.K.B.G.[.F ",
"0.!.5XhXqXvXE.D.BXaXyXrXtXNX_.S.mXyXrXrXrXcX|.V.xXpXrXfXqX/.e.) ",
"Y v U L f.g.I +.j P f.d.f.L _ N h f.a.d.s.d.h.T g #Xu.i.p.h.A.Y "
};
