/* XPM */
static char *gob12[] = {
/* columns rows colors chars-per-pixel */
"32 32 51 1 ",
"  c #030402",
". c #1D2800",
"X c #233B08",
"o c #343B00",
"O c #2E1E22",
"+ c #3A1A3B",
"@ c #252624",
"# c #323234",
"$ c #640A0E",
"% c #3F5A1F",
"& c #525F02",
"* c #764A00",
"= c #1B0F41",
"- c #253141",
"; c #5C3C5D",
": c #444444",
"> c #474846",
", c #534F54",
"< c #545456",
"1 c #5B7C40",
"2 c #465063",
"3 c #5E5A60",
"4 c #7E5E7F",
"5 c #686967",
"6 c #6D6D6E",
"7 c #7F726E",
"8 c #971E2A",
"9 c #C70000",
"0 c #FF2627",
"q c #916600",
"w c #CB3044",
"e c #FF4460",
"r c #81850B",
"t c #93AC3E",
"y c #C79D00",
"u c #E3B700",
"i c #FFD600",
"p c #FFFC00",
"a c #8B8244",
"s c #8AA456",
"d c #95A052",
"f c #81A669",
"g c #A1C563",
"h c #6F788D",
"j c #9F7FA0",
"k c #888A86",
"l c #948581",
"z c #AAACA8",
"x c #C09FC1",
"c c #DBBADC",
"v c #F9F7DA",
/* pixels */
",,337733,377733,,7777773,l77777,",
",7777773,77777q3,q7777773,lll7,,",
"77777777,77q7qpqqpX777773,,,,,,,",
"l7777777,l7pqyyyqy%X7777,377733,",
",l777773,l7y**pq*p1%XlX,37777773",
",,lll73,,lX9uiiiuyf1%X%X77777777",
",,3333,,,X%1y0uuy111%11%X7777777",
",37777733X1f11%%%%%111f1%Xlll77,",
"l7777777X%11%%ggggg%%1111X,,,,,,",
"l777j777X%1%ggggggggt%11%%X7773,",
",l77jj77X%%ggggggggggt%111X77773",
",,lljcj3o%tggggggggggtt%1%X77773",
"3333jcj,otggggggggggtoo111X7773,",
"7777jccjotgggggggggo&ggo1%X777,7",
"7777jccjotgga$$aggotgrto%X77l,l7",
"77777jccotga8wO$dgtg&to&%Xll,l77",
"77777jccord$weOsggg&tor&X3,,,l77",
"777773jco&tOOOsgggtro&&o73,33,l7",
"7777,,jccortgggggtrr&&o73,3773,l",
"lll,3jjjjjj&rrtttrr&&oll,377773,",
",,,777jvvvcjjooooo::::#,37777773",
"3,,l777jxvvvcjj66666+<:#77777777",
"3,,l7777jjjvvvcjj6<+4+<:##777777",
",33,ll7+;4 jxvvvcjj;j+6<<:#77777",
"37773,+444 @>jjvvvc4j+>6<<:#777,",
"7777773+++ >>--jxvvj;52-6<::#7,,",
"7777777,777 @5.5z+;j;hh-66<:#,,7",
"7777777,l77 @>.>k+j;+--=66<<#,,l",
"7777777,l77 >zk5@+j+>==#<6<:#3,l",
"7777773,,l kk>@@ ,+>> ###<:#773l",
"l777ll,,,, kk5> ,,   ,,##:#7777,",
",lll,,,,,,3    ,,377733,,#77777,"
};
