/* XPM */
static char *gob1[] = {
/* columns rows colors chars-per-pixel */
"32 32 34 1 ",
"  c #030402",
". c #233B08",
"X c #343B00",
"o c #3A1A3B",
"O c #252624",
"+ c #323234",
"@ c #3F5A1F",
"# c #525F02",
"$ c #764A00",
"% c #1B0F41",
"& c #253141",
"* c #5C3C5D",
"= c #444444",
"- c #534F54",
"; c #545456",
": c #5B7C40",
"> c #465063",
", c #5E5A60",
"< c #686967",
"1 c #6D6D6E",
"2 c #7F726E",
"3 c #916600",
"4 c #81850B",
"5 c #93AC3E",
"6 c #C79D00",
"7 c #E3B700",
"8 c #FFD600",
"9 c #FFFC00",
"0 c #81A669",
"q c #A1C563",
"w c #6F788D",
"e c #9F7FA0",
"r c #948581",
"t c #DBBADC",
/* pixels */
"--,,22,,-,222,,--222222,-r22222-",
"-222222,-222222,3r222222,-rrr2--",
"22222222-22223.383.32222,-------",
"r2222222-r22293666392222-,222,,-",
"-r22222,-r22.6$939$6.r2-,222222,",
"--rrr2,--r2.@678$876@.--22222222",
"--,,,,----X@:3678763:@X-r2222222",
"-,22222,,X#@:0366630:@#X-rrrr22-",
"r22222222X45@:0:::0:@54X--------",
"r2222222X#45@@::0::@@54#X,,222,-",
"-r22XX22X455@:@:::@:@554X22XX22e",
"--rX45#XX455q@:::::@q554XX#54Xee",
",,,,X454X455q@@:@:@@q554X454Xete",
"22222X55X4555@@@:@@@5554X55Xette",
"222222X#X44555@@@@@55544X#X2ette",
"2222222XX#45555@5@55554#XXrettte",
"2222222eX#4455555555544#X,-ette2",
"22222,-e   44455555444   ,-ette2",
"2222--, O++ 444444444 ++O ette-r",
"rrr-,2 O+==++#44444#++==+O tte,-",
"---222 +==;;=========;;==+ te22,",
",--r222+=;;11;;;;;;;11;;=+ te222",
",--r2o+===;;111111111;;=;+< oo22",
"-,,-ro+=====;1111111;==;1+w>%*o2",
",222,-+===;;==;;;;;==;;11;ww%o2-",
"22222+===;;==;;;11;=;;111;+&%2--",
"2222+====;;=;111111=;;1111;%---2",
"2222+===;;;;1111111;;11111;+,--r",
"22222+==;;;111111111;111111;+,-r",
"22222+===;1111111;11111111;=+2,r",
"r222rr+++;;11111;;;;1111;=++222-",
"-rrr-----++===;;;;;;====++22222-"
};
