/* XPM */
static char *gob10[] = {
/* columns rows colors chars-per-pixel */
"32 32 52 1 ",
"  c #030402",
". c #1D2800",
"X c #233B08",
"o c #343B00",
"O c #2E1E22",
"+ c #3A1A3B",
"@ c #252624",
"# c #323234",
"$ c #640A0E",
"% c #3F5A1F",
"& c #525F02",
"* c #764A00",
"= c #534721",
"- c #1B0F41",
"; c #253141",
": c #5C3C5D",
"> c #444444",
", c #474846",
"< c #534F54",
"1 c #545456",
"2 c #5B7C40",
"3 c #465063",
"4 c #5E5A60",
"5 c #7E5E7F",
"6 c #686967",
"7 c #6D6D6E",
"8 c #7F726E",
"9 c #971E2A",
"0 c #C70000",
"q c #FF2627",
"w c #916600",
"e c #CB3044",
"r c #FF4460",
"t c #81850B",
"y c #93AC3E",
"u c #C79D00",
"i c #E3B700",
"p c #FFD600",
"a c #FFFC00",
"s c #8B8244",
"d c #8AA456",
"f c #95A052",
"g c #81A669",
"h c #A1C563",
"j c #6F788D",
"k c #9F7FA0",
"l c #888A86",
"z c #948581",
"x c #AAACA8",
"c c #C09FC1",
"v c #DBBADC",
"b c #F9F7DA",
/* pixels */
"<<448844<488844<<8888884<z88888<",
"<8888884<88888w4<w8888884<zzz8<<",
"88888888<88w8wawwaX888884<<<<<<<",
"z8888888<z8awuuuwu%X8888<488844<",
"<z888884<z8u**aw*a2%XzX<48888884",
"<<zzz84<<zX0ipppiug2%X%X88888888",
"<<4444<<<X%2uqiiu222%22%X8888888",
"<48888844X2g22%%%%%222g2%Xzzz88<",
"z8888888X%22%%hhhhh%%2222X<<<<<<",
"z8888888X%2%hhhhhhhhy%22%%X8884<",
"<z888888k%%hhhhhhhhhhy%222X88884",
"<<zzz884kkyhhhhhhhhhhyy%2%X88884",
"44444<<<kbkhhhhhhhhhyoo222X8884<",
"88888444kbchhhhhhhho&hho2%X888<8",
"88888884kbbks$$shhoyhtyo%X88z<z8",
"88888888kvbk9eO$fhyh&yo&%Xzz<z88",
"88888884okbbkrOdhhh&yot&X4<<<z88",
"888884<<okvbcOdhhhyto&&o84<44<z8",
"8888<<488okbbkhhhytt&&o84<4884<z",
"zkkkkkk888kvbkyyytt&&ozz<488884<",
"<<kvvvvkk88kbbkooo>>>#<<48888884",
"4<<kkvvvvk=kvbc777771>#888888888",
"4<<z8kkvvv=pkbb+++x771>#88888888",
"<44<zz8kkv @kvb:kk+l771>#8888888",
"48884<zz<k +:5kk:+@,,71>>#88888<",
"8888884<48+5kk::+6,@ 711>#zzz8<<",
"8888888<888+++-jj,,  771>>#<<<<8",
"8888888<z88 @,-;3; . 7711>#44<<z",
"8888888<z8 , @----,, 7711>#884<z",
"8888884<<z ,,,  ,6ll,771>#88884z",
"z888zz<<<<z   z8 lll671##888888<",
"<zzz<<<<<<444<<<<    ##<<z88888<"
};
