/* XPM */
static char *gob2[] = {
/* columns rows colors chars-per-pixel */
"32 32 30 1 ",
"  c #030402",
". c #233B08",
"X c #343B00",
"o c #3A1A3B",
"O c #252624",
"+ c #323234",
"@ c #3F5A1F",
"# c #525F02",
"$ c #764A00",
"% c #5C3C5D",
"& c #444444",
"* c #534F54",
"= c #545456",
"- c #5B7C40",
"; c #5E5A60",
": c #7E5E7F",
"> c #6D6D6E",
", c #7F726E",
"< c #916600",
"1 c #81850B",
"2 c #93AC3E",
"3 c #C79D00",
"4 c #E3B700",
"5 c #FFD600",
"6 c #FFFC00",
"7 c #81A669",
"8 c #A1C563",
"9 c #9F7FA0",
"0 c #948581",
"q c #DBBADC",
/* pixels */
"**;;,,;;*;,,,;;*<,,,,,,;*0,,,,,*",
"*,,,,,,;*,,,,<.<5<.<,,,,;*000,**",
",,,,,,,,*,,,,6<333<6,,,,;*******",
"0,,,,,,,*0,,.3$6<6$3.,,,*;,,,;;*",
"*0,,,,,;*0,.@345$543@.,*;,,,,,,;",
"**000,;**0X@-<34543<-@X*,,,,,,,,",
"**;;;;***X#@-7<333<7-@#X0,,,,,,,",
"*;,,,,,;;X12@-7---7-@21X*0000,,*",
"0,,9,,,,X#12@@--7--@@21#X****9**",
"0,,9XX,,X122@-@---@-@221X;;XX9;*",
"*0,X12#XX1228@-----@8221XX#21X,;",
"**09X121X1228@@-@-@@8221X121X9,;",
";;;9qX22X1222@@@-@@@2221X22Xq9;*",
",,,9qqX#X11222@@@@@22211X#Xqq9*,",
",,,9qq9XX#12222@2@22221#XX9qq90,",
",,,9qq9,X#1122222222211#X*9qq9,,",
",,,,9qq9   11122222111   9qq90,,",
",,,,9qq O++ 111111111 ++O qq9*0,",
",,,,9q O+&&++#11111#++&&+O q9;*0",
"000*9q +&&==&&&&&&&&&==&&+ q9,;*",
"***,,9q+&==>>=======>>==&+q9,,,;",
";**0,9+&&&==>>>>>>>>>==&&&+9,,,,",
";**0o%+&&=&&=>>>>>>>=&&=&&+%o,,,",
"*;;o:+&&&===&&=====&&===&&&+:o,,",
";,,,o+&&&==>&=>>>>>=&>==&&&+o,,*",
",,,,,+&&===>&>>>>>>>&>===&&+0,**",
",,,,,+&&===>=>>>>>>>=>===&&+***,",
",,,,,+&&==>>>>>>>>>>>>>==&&+;**0",
",,,,,+&&==>>>>>>>>>>>>>==&&+,;*0",
",,,,,,+&===>>>>>>>>>>>===&+,,,;0",
"0,,,00*++&&==>>>>>>>==&&++,,,,,*",
"*000*****+++&&&&&&&&&+++*0,,,,,*"
};
