/* XPM */
static char *gob5[] = {
/* columns rows colors chars-per-pixel */
"32 32 52 1 ",
"  c #030402",
". c #1D2800",
"X c #2F3900",
"o c #233B08",
"O c #343B00",
"+ c #2E1E22",
"@ c #3A1A3B",
"# c #252624",
"$ c #323234",
"% c #640A0E",
"& c #3F5A1F",
"* c #444A00",
"= c #4B5209",
"- c #525F02",
"; c #764A00",
": c #76590C",
"> c #707010",
", c #1B0F41",
"< c #253141",
"1 c #5C3C5D",
"2 c #444444",
"3 c #474846",
"4 c #534F54",
"5 c #545456",
"6 c #5B7C40",
"7 c #5E5A60",
"8 c #7E5E7F",
"9 c #686967",
"0 c #6D6D6E",
"q c #7F726E",
"w c #971E2A",
"e c #C70000",
"r c #FF2627",
"t c #916600",
"y c #CB3044",
"u c #FF4460",
"i c #81850B",
"p c #93AC3E",
"a c #C79D00",
"s c #E3B700",
"d c #FFD600",
"f c #FFFC00",
"g c #8B8244",
"h c #95A052",
"j c #A1C563",
"k c #9F7FA0",
"l c #888A86",
"z c #948581",
"x c #AAACA8",
"c c #C09FC1",
"v c #DBBADC",
"b c #F9F7DA",
/* pixels */
"4477qq7747qqq77t4tqqqqq74zqqqqq4",
"4qqqqqq74qqqqttftfttqqqq74zzzq44",
"qqqqqqqq4qqqqfta;atfqqqq74444444",
"zqqqqqqq4zqqoa;tft;aoqqq47qqq774",
"4zqqqqq74zqo&as;d;sa&oq47qqqqqq7",
"44zzzq744zO&6aedrdea6&O4qqqqqqqq",
"447777444O-i&6asesa6&i-Ozqqqqqqq",
"47qqqqq77Oip&6&666&6&piO4zzzzqq4",
"zqqqqqqqO-ipp&&6&6&&ppi-O4444444",
"zqkqOOqqOippjj&&&&&jjppiO77OOqk4",
"4zkkip-OOipjjjj&j&jjjjpiOO-pikk7",
"44kbkipiOipjjjjjjjjjjjpiOipikbk7",
"77kbcO-iOipjjjjjjjjjjjpiOi-Ocbk4",
"qqkbbkO-O:%%%gjjjjjg%%%:O-Okbbkq",
"qqkbbkqOO%++ywgjjjgwy++%OOqkbbkq",
"qqkvbkqqO=++uy%hjh%yu++=O4zkbvkq",
"qqkvbcq7  >++++jjj++++>  74cbvkq",
"qqqkbbk$$$OipjjjjjjjpiO$$$kbbkzq",
"qqqkbbk2222O-ipppppi-O2222kbbk4z",
"zzzkvbk32505OOOOOOOOO50523kbvk74",
"444kvbc 3350005fdf5000533 cbvkq7",
"744zkbb@@@ 3500dfd0053 @@@bbkqqq",
"744zkbb1kk@3993###3993@kk1bbkqqq",
"477@18kk1@ <###393###< @1kk81@qq",
"7q@8kk11@  #<<<333<<<#  @11kk8@4",
"qqq@@@<<, #39.X9x9X.93# ,<<@@@44",
"qqqqq$,,$ #93*.393.*39# $,,$444q",
"qqqqq$50$$ #.*X   X*.# $$05$744z",
"qqqqq$00$$$ lx9 $ 9xl $$$00$q74z",
"qqqqqq$0$$$ 333 $ 333 $$$0$qqq7z",
"zqqqzz4$44z 993 4 399 444$qqqqq4",
"4zzz44444477   447   7744zqqqqq4"
};
