/* XPM */
static char *gob8[] = {
/* columns rows colors chars-per-pixel */
"32 32 50 1 ",
"  c #030402",
". c #233B08",
"X c #343B00",
"o c #2E1E22",
"O c #3A1A3B",
"+ c #252624",
"@ c #323234",
"# c #640A0E",
"$ c #3F5A1F",
"% c #525F02",
"& c #764A00",
"* c #534721",
"= c #1B0F41",
"- c #253141",
"; c #5C3C5D",
": c #444444",
"> c #474846",
", c #534F54",
"< c #545456",
"1 c #5B7C40",
"2 c #465063",
"3 c #5E5A60",
"4 c #7E5E7F",
"5 c #686967",
"6 c #6D6D6E",
"7 c #7F726E",
"8 c #971E2A",
"9 c #C70000",
"0 c #FF2627",
"q c #916600",
"w c #CB3044",
"e c #FF4460",
"r c #81850B",
"t c #93AC3E",
"y c #C79D00",
"u c #E3B700",
"i c #FFD600",
"p c #FFFC00",
"a c #8B8244",
"s c #8AA456",
"d c #95A052",
"f c #81A669",
"g c #A1C563",
"h c #9F7FA0",
"j c #888A86",
"k c #948581",
"l c #AAACA8",
"z c #C09FC1",
"x c #DBBADC",
"c c #F9F7DA",
/* pixels */
",,337733,377733,q77q7773,k77777,",
",7777773,77777.3pqqpq7q73,kkk7,,",
"77777777,7777.$.yqyyyqp73,,,,,,,",
"k7777777,k.7.$1$p&qp&&y7,377733,",
",k777773,.$.$1f1yuiiiu9,37777773",
",,kkk73,.$11$1111yuu0y$.77777777",
",,3333,.$1f111$$$$$11f1.k7777777",
",377777.1111$$ggggg$$11$.kkkk77,",
"k77777.$$11$tgggggggg$1$.,,,,,,,",
"k77777.111$tgggggggggg$$.337773,",
",k7777.$1$ttggggggggggt$X7777773",
",,kkk7.111XXtggggggggggtX7777h73",
"33333,.$1Xgg%XgggggggggtXh77hh3,",
"7777733.$XtrgtXgga##aggthh7hxh,7",
"7777777.$%Xt%gtgd#ow8aghchhxxhk7",
"77777777.%rXt%gggsoew#hcchxxhk77",
"77777773,X%%Xrtgggsoohcczxxxhk77",
"777773,,33X%%rrtgggghccchxxh3,k7",
"7777,,37773X%%rrttthccxhxxh773,k",
"kkk,3777777@:::XXXhccxhxxh77773,",
",,,7777777@:<6666hccxh*xh7777773",
"3,,k77777@:<jO<6hccxhi*h77777777",
"3,,k7777@:<>O4Ohccxh++ k77777777",
",33,kk77@:6 Oh4ccxh+>+ ,k7777777",
"37773,kk@<6 5Oh4xh-->> 3,k77777,",
"7777773@:<6 >5;h4;O5+ 4O3,kkk7,,",
"7777777@:66=-22;hh4O+ O77,,,,,,7",
"7777777@:66@===+OOO+ 7777,,33,,k",
"7777777@:66@@ >5jl> 77777,3773,k",
"7777773@:6<@@ +>>> ,kkk7,377773k",
"k777kk,,@6<@k >5jj 3,,,,,777777,",
",kkk,,,,,@@33,    77733,,k77777,"
};
