/* XPM */
static char *left_1[] = {
/* columns rows colors chars-per-pixel */
"32 32 193 2 ",
"   c black",
".  c #080B0D",
"X  c #160E00",
"o  c #3A0700",
"O  c #221A00",
"+  c #2E1D00",
"@  c #2E1C19",
"#  c #2B2A00",
"$  c #332C01",
"%  c #3B3303",
"&  c #3C3508",
"*  c #302B14",
"=  c #363113",
"-  c #3B3510",
";  c #1C3B39",
":  c #362524",
">  c #3A2624",
",  c #322D21",
"<  c #3B2826",
"1  c #3D2B2A",
"2  c #3A2937",
"3  c #293737",
"4  c #383B3C",
"5  c #4B0000",
"6  c #540000",
"7  c #5C0000",
"8  c #650000",
"9  c #6E0000",
"0  c #423A0B",
"q  c #453808",
"w  c #7F2900",
"e  c #422E2C",
"r  c #42312E",
"t  c #463434",
"y  c #4D3B31",
"u  c #4A4710",
"i  c #7D4F2E",
"p  c #202844",
"a  c #323744",
"s  c #3D3D45",
"d  c #403F46",
"f  c #583F44",
"g  c #334F57",
"h  c #3F456D",
"j  c #444147",
"k  c #45434A",
"l  c #49464C",
"z  c #5D4242",
"x  c #5C4449",
"c  c #494754",
"v  c #4B4D54",
"b  c #4D4F5A",
"n  c #534F54",
"m  c #5A4F54",
"M  c #524F5B",
"N  c #545654",
"B  c #5C5857",
"V  c #624746",
"C  c #664A49",
"Z  c #654B4A",
"A  c #74504F",
"S  c #665654",
"D  c #715654",
"F  c #785654",
"G  c #775A57",
"H  c #7B5D5C",
"J  c #79605D",
"K  c #525160",
"L  c #575A60",
"P  c #5E5A60",
"I  c #5E5A6A",
"U  c #4A5276",
"Y  c #695660",
"T  c #715C63",
"R  c #576667",
"E  c #5C6262",
"W  c #5E626B",
"Q  c #5D6D75",
"!  c #666667",
"~  c #646A6B",
"^  c #746767",
"/  c #7F726E",
"(  c #7F786E",
")  c #666E78",
"_  c #7E6C72",
"`  c #6E7678",
"'  c #767678",
"]  c #7F7279",
"[  c #9E0000",
"{  c #A50000",
"}  c #AD0000",
"|  c #B40000",
" . c #BA0000",
".. c #C20000",
"X. c #FF040D",
"o. c #FF151A",
"O. c #FF1E20",
"+. c #FF2627",
"@. c #FF2A2E",
"#. c #FF2E30",
"$. c #FF3435",
"%. c #AA5E37",
"&. c #9D703D",
"*. c #915E4A",
"=. c #85585B",
"-. c #945E53",
";. c #995E53",
":. c #9F6A4F",
">. c #9D704C",
",. c #A77E59",
"<. c #856D69",
"1. c #86726E",
"2. c #87786E",
"3. c #89796E",
"4. c #836D72",
"5. c #8F7772",
"6. c #877A76",
"7. c #8A7B75",
"8. c #867A7C",
"9. c #8B7D7A",
"0. c #957F79",
"q. c #987F79",
"w. c #7F827D",
"e. c #E0AD00",
"r. c #E1B100",
"t. c #ECB400",
"y. c #FAC100",
"u. c #FFE300",
"i. c #FFFD00",
"p. c #B4875D",
"a. c #85827C",
"s. c #8E817C",
"d. c #93827C",
"f. c #9B837D",
"g. c #BA8A68",
"h. c #CD8965",
"j. c #E3906E",
"k. c #EA926E",
"l. c #F09576",
"z. c #003B9F",
"x. c #0058B1",
"c. c #68768F",
"v. c #7A8D88",
"b. c #008DF4",
"n. c #828680",
"m. c #8E8983",
"M. c #8B8A87",
"N. c #9A8881",
"B. c #9F8E89",
"V. c #969393",
"C. c #A38C85",
"Z. c #A08F8A",
"A. c #A4928C",
"S. c #A9948E",
"D. c #A89691",
"F. c #A99895",
"G. c #B29794",
"H. c #8591AA",
"J. c #AF9EA2",
"K. c #B69FA3",
"L. c #AFAFB3",
"P. c #B7B7BB",
"I. c #F7BE93",
"U. c #C9ADA4",
"Y. c #C6B0A8",
"T. c #CAB4AC",
"R. c #CFB8B0",
"E. c #D2B7B0",
"W. c #FAC99C",
"Q. c #DAC3BA",
"!. c #FFCDA2",
"~. c #FFD2A3",
"^. c #FFDBA7",
"/. c #FFE3A8",
"(. c #FFE2AF",
"). c #FFECB5",
"_. c #FFECB8",
"`. c #FFF2BA",
"'. c #BFBFC3",
"]. c #C6C7CC",
"[. c #CACAD0",
"{. c #D1D1D6",
"}. c #D9D9DD",
"|. c #FFFCC6",
" X c #FFFFCC",
".X c #FFFFD4",
"XX c #FFFFD9",
"oX c #CED2E8",
"OX c #E1E1E6",
"+X c #E6E6EB",
"@X c #E8EAF8",
"#X c #F3F5FB",
"$X c white",
/* pixels */
"l 7./ / / / 1.P c d.> e 1 1 N.I n 1 < 1 1 a.7.s.B k D.Z.A.6.c v ",
"/ / / / / / / 9.v 9.m.e S.D > t 1 D C.F 1 1 < e y r k j k c N v ",
"A./ / / / / ( < y r 1 1 > C.q.C f.f.Z @ Q.f.C.H y I 7.1.2.L B l ",
"j D./ / / / 2.W y H N.E.V V 5.5.R.z 5.E.5.z A 1 r e 9./ / / 2.P ",
"n j A.C.A.1.P e e 1 Z 5.E.5.5.Y.1.5.5.5.5.5.5.f.C.F : / / / / 6.",
"n N K b M P 1 D C.q.5.5.5.5.5.6.5.5.5.5.T.<.5.C : 1 s./ / / / 7.",
"l L 2./ s.e F C.V 5.T.5.d.5.Y.<.5.5.5.z 5.T.5.d.f.D : F.A./ 7.k ",
"Z./ / / > t r : q.Y.<.m.8 s.Y.Y.z 5.Y.5.B d.Z S M.N.D < v l c l ",
"B.4./ / 6.m.1 C.V T.5.E | E 2.T.m 7.T.a.| E V.8  .3 S.G < s.B k ",
"d D./ / 4.> F D 1 q.m.7 #.{ m.a.| d.7.a.+.} Q | $.9 4 1 s./ 7.B ",
"N j A.Z.F.e H t u x m.{ o.X.j w.X.N f.N O.} 9 8 } 8 ^ 1 a./ 2.P ",
"P P M b K n e K 0 ).2 ^.XXXXXX2 .Xz D D B M.S R @.} ~ J < 9.L l ",
"/ / / / 2.L P I & !.I.|.X $ X |.`.1.Z x f 5.0.N O.#.} ^ r s.g 3.",
"/ / / / / / 1.P & !.).(.$X  $X(.`.^ _ ^.|./ 5.a.O.+.+.; t k S.<.",
"/ / / / / / / 9.$ !.).).V.  $X/.`.T ~.i  X4.5.n.[ +.+.+.3 F.<./ ",
"/ / / / / / 6.P - k.`.|.o o $X^.`.Y  Xi (.z 5.M.} #.+.@.6 V./ / ",
"/ / / / 2.P l v 0 :.W. Xw w |.(.`.S ~.k.# D f.S R [ +.+.+.g F./ ",
"/ / / 6.l l P 7.8.# l.!..X X_.^.).W.h.l.S D D D ! | +.+.#.8 g D.",
"Z.A.A.j L 2./ / / 8.# >.k.j.!.!.!.j.l.&.F e H e H ; +.5 6 ..R g ",
"k k k 1./ / / / / / 8.% # + O O O O Q ) @ n e n > M.7  .|  .w.B ",
"B v c A./ / / / / 1.] c.oX@X@X$X$X$X+X@X].' k 3./ / v. . .v./ 2.",
"Y N l A./ / / / / 8.& r.t.$X$X$X+XL.+XL.+X'.~ N./ / 1.w.a./ / / ",
"N B Y g A.Z./ / D.j b : i.z.$X#X. ! ].M.OXOX'.! N./ / / / / / 2.",
"L 2.<.<.b s A.D.s L 9.p i.x.b.+ E.U.4 3 $X}.P.].~ B./ / / / 2.k ",
"/ / / / / 1.K k L 1.6.3 H.%.q h.,.p.G.L $X}.P.'.! ` Z.A.A.2.l l ",
"/ / / / / / 2.k 1./ 6.a c x.q g.,.p.A + $X}.P.'.[.' k l l v v 2.",
"/ / / / / / 1.j A./ 9.- y.h = -.*.D = U $X}.P.S {.' l B P n l A.",
"/ / / / / / 2.k D.1.& -.=.e.i., & = e.u.$X}.P.) ' j B 7.2.P j A.",
"/ / / / / / P N k F.& ;.-.=.* - K.D.:.$X}.'.].' l B 1./ / 1.K A.",
"A./ / / A.D.l n n k K.q u 0 J.m.% h.Q #X'.! ' d v 1./ / / / 6.s ",
"d A.B.A.s j n n N n L B I n v v M q % ) ` n P N l A./ / / / 1.c ",
"N j K b 2.2.P P M B 6.1.9.P Y n n 8.8.7.7.7.9.P l A./ / / / 7.n "
};
