/* XPM */
static char *left_2[] = {
/* columns rows colors chars-per-pixel */
"32 32 188 2 ",
"   c black",
".  c #160E00",
"X  c #3A0700",
"o  c #231B00",
"O  c #2C1816",
"+  c #2A2900",
"@  c #332C01",
"#  c #3A3205",
"$  c #3B3309",
"%  c #2D2615",
"&  c #372818",
"*  c #2E2721",
"=  c #362524",
"-  c #3C2827",
";  c #3C2A29",
":  c #3A2937",
">  c #2C3B39",
",  c #373839",
"<  c #5C0000",
"1  c #650000",
"2  c #6E0000",
"3  c #760000",
"4  c #463604",
"5  c #443B0B",
"6  c #453D12",
"7  c #7F2900",
"8  c #412E2B",
"9  c #43312E",
"0  c #422F31",
"q  c #453230",
"w  c #4C3734",
"e  c #3D4139",
"r  c #4A440F",
"t  c #7D4F2E",
"y  c #252C4B",
"u  c #323744",
"i  c #3D3D45",
"p  c #413F46",
"a  c #3B4542",
"s  c #3B4854",
"d  c #3F4163",
"f  c #434147",
"g  c #45434A",
"h  c #49464C",
"j  c #5C4346",
"k  c #464554",
"l  c #494754",
"z  c #4B4D54",
"x  c #4D4F5A",
"c  c #534F54",
"v  c #5A4F54",
"b  c #524F5C",
"n  c #545654",
"m  c #5C5654",
"M  c #624746",
"N  c #664A49",
"B  c #654B4A",
"V  c #75524D",
"C  c #655654",
"Z  c #715654",
"A  c #795855",
"S  c #7B5D5B",
"D  c #534F61",
"F  c #525160",
"G  c #575A60",
"H  c #5E5A61",
"J  c #5E5A6B",
"K  c #665565",
"L  c #715C63",
"P  c #645C7A",
"I  c #596362",
"U  c #5D646C",
"Y  c #5E6C72",
"T  c #626365",
"R  c #63666B",
"E  c #686C6D",
"W  c #746767",
"Q  c #7F726E",
"!  c #676D74",
"~  c #767175",
"^  c #7F7277",
"/  c #767678",
"(  c #990000",
")  c #A30000",
"_  c #AD0000",
"`  c #B40000",
"'  c #BA0000",
"]  c #FF040D",
"[  c #FF0F18",
"{  c #FF1A1C",
"}  c #FF2627",
"|  c #FF2C2D",
" . c #FF2F31",
".. c #FF3233",
"X. c #FF3839",
"o. c #8B533C",
"O. c #AA5329",
"+. c #A55430",
"@. c #9D703D",
"#. c #8B5142",
"$. c #925E4A",
"%. c #9D704C",
"&. c #A77E5D",
"*. c #856D69",
"=. c #87726E",
"-. c #87786E",
";. c #89796E",
":. c #836D72",
">. c #8F7772",
",. c #867975",
"<. c #8A7B74",
"1. c #877A7E",
"2. c #8A7D7A",
"3. c #977E79",
"4. c #987F79",
"5. c #7F827C",
"6. c #ECB400",
"7. c #FFC300",
"8. c #FFFE00",
"9. c #85827C",
"0. c #8E817C",
"q. c #91827B",
"w. c #9B837D",
"e. c #B88A6A",
"r. c #CC8C6A",
"t. c #E3906E",
"y. c #EA926E",
"u. c #F09576",
"i. c #003B9F",
"p. c #004D98",
"a. c #005BB8",
"s. c #106EB2",
"d. c #68768F",
"f. c #867A81",
"g. c #7B8786",
"h. c #0089DB",
"j. c #0F9CF3",
"k. c #0BA1FF",
"l. c #828680",
"z. c #8F8681",
"x. c #8E8983",
"c. c #918583",
"v. c #9E8881",
"b. c #9F8E89",
"n. c #93899C",
"m. c #959490",
"M. c #A88787",
"N. c #A48B85",
"B. c #A4938C",
"V. c #A9958E",
"C. c #A89691",
"Z. c #AA9995",
"A. c #8591AA",
"S. c #B79CAC",
"D. c #A8B0AA",
"F. c #B7B7BB",
"G. c #C5A89D",
"H. c #F7BE93",
"J. c #C6B0A8",
"K. c #CAB4AC",
"L. c #CEB4AC",
"P. c #CFB8B0",
"I. c #FAC99C",
"U. c #FFD09E",
"Y. c #DAC3BA",
"T. c #FFCDA2",
"R. c #FFD2A3",
"E. c #FFDBA7",
"W. c #FFE3A8",
"Q. c #FFE2AF",
"!. c #FFECB5",
"~. c #FFECB8",
"^. c #FFF2BA",
"/. c #BF9DC0",
"(. c #C1C2C6",
"). c #C7C7CB",
"_. c #D9D9DD",
"`. c #E9D9DD",
"'. c #FFFCC6",
"]. c #FFFFCC",
"[. c #FEE4DD",
"{. c #FFFFD4",
"}. c #FFFFD9",
"|. c #C2CAEC",
" X c #E8E8ED",
".X c #EAEBF4",
"XX c #F7FFFF",
"oX c white",
/* pixels */
"l <.Q Q Q Q -.H n q.c.8 V.Z ; 8 8 Z N.A ; - ; 8 w - Z.B.B.-.l c ",
"-.Q Q Q Q Q -.- w 8 ; ; - w.N.B 4.w.M O Y.q.N.S w b g a p l c z ",
"C.Q Q Q Q Q Q z.9 S w.Y.M M >.>.P.j >.P.>.M Z - 9 9 q.-.-.G H h ",
"f V.Q Q Q Q 2.; 9 - N >.P.>.>.K.=.>.>.>.>.>.>.w.N.A = =.Q Q -.G ",
"z p B.b.B.2.; Z w.w.>.>.>.>.>.>.>.>.>.>.K.*.>.N = ; 0.Q Q Q Q -.",
"c n F F m ; A b.M >.K.>.0.>.J.*.>.>.>.j >.K.>.w.w.Z - ,.Q Q =.<.",
"h G -.<.- q q = w.J.*.c.1 0.J.J.M >.J.>.C 0.N C x.b.Z = Z.Q ,.h ",
"C.=.Q Q ,.c.; N.N K.>.I ` I <.K.v >.J.9.` I m.1 ' > B.A - k l h ",
"B.Q Q Q ,.- A Z ; 3.x.< ..) x.9._ x.>.9.| _ Y ` X.2 e ; 9.;.m h ",
"f C.Q Q Q ; S 0 r j x.) [ ] g 9.] n w.n { _ 2 1 _ 1 W ; 0.Q -.H ",
"c f B.b.B.2.8 U $ !.u E.}.}.{.: {.j Z Z m m.C I } _ Y S ; ,.-.H ",
"H H F x b l c c # T.H.'.. @ . '.^.:.B j j -.3.n } ( ' W ; 0.G h ",
"Q Q Q Q -.G H J # T.~.Q.oX  XXQ.^.W :.E.'.*.>.g.{ .._ , q 3.i <.",
"Q Q Q Q Q Q ,.C # T.Q.~.n.  oXE.^.L U.t '.~ >.5.{ } _ a w a C.Q ",
"Q Q Q Q Q Q Q 2.$ y.^.'.X X oXW.^.K '.t Q.j >.9.{ } _ e z C.Q Q ",
"Q Q Q Q Q Q -.J 5 %.I.].7 7 ^.Q.^.C R.y.+ Z w.n } | ) a z C.Q Q ",
"Q Q Q Q -.H h k K @ u.I.{.{.~.Q.~.I.r.u.C Z Z T )  ._ 3 U a C.Q ",
"Q Q Q <.g h H -.Q 1.@ %.y.t.T.T.R.t.y.@.Z - S > _ .._ 3 x.G i C.",
"B.B.C.i G -.Q Q Q Q f.# + o o o o o U ! O g.& D._ X.< 3 5.=.G f ",
"g h f =.Q =.Q Q Q Q 1.d.|..X XoXoXoXoX.X(.)./ s 2 1 3 g.Q Q =.G ",
"m n h B.Q Q Q Q Q ^ # 6.6.oXoXoX`.F.F..XF.(.)./ 9.5.5.Q Q Q Q -.",
"H b h B.Q Q Q Q Q 2.x * 8.i.oX[.h.O E m.U L ).T Q Q Q Q Q Q Q Q ",
"l m H i B.B.Q Q C.g z y 8.a.h.h.j.4 L.G.M.T .XF.E Q Q Q Q Q Q -.",
"H -.Q -.x i B.V.p F 3.> A.+.+.O.O.6 #.&.o.U oX XI v.Q Q Q Q -.h ",
"-.=.Q Q Q =.F g G =.,.u z p.s.j.k.4 e.&.o.U oX_.(.E B.B.B.-.g h ",
"Q Q Q Q Q Q -.h =.Q ^ $ 7.d ! K P % e.e.V R oX_.F./ f h g z z -.",
"Q Q Q Q Q Q =.a B.Q Q f.% 6.8.8.8.8.% 5 4 R oX_.F./ h H H b h B.",
"Q Q Q Q Q Q <.g C.Q Q Q f.& % /.S.n.S.5 f.T oX_.)./ b -.-.m f B.",
"Q Q Q Q Q Q H c g V.Q Q =.l.$ #.&.#.V 5 Z.R oXF.E z =.Q =.=.F B.",
"C.Q Q Q B.B.h c c f B.b.b.Z.$ r.e.$.A r k g E / p =.Q Q Q Q -.i ",
"g B.b.B.i g c c c c F F H z D 6 6 5 4 c.q.m K h h B.Q Q Q Q =.k ",
"c g D z ,.<.m J n J 0.q.9 q 0 w F c.c.- 8 q 8 H h B.Q Q Q Q <.n "
};
