/* XPM */
static char *right_1[] = {
/* columns rows colors chars-per-pixel */
"32 32 191 2 ",
"   c black",
".  c #160E00",
"X  c #3A0700",
"o  c #221A00",
"O  c #2C1917",
"+  c #292800",
"@  c #332D02",
"#  c #3A3306",
"$  c #383406",
"%  c #3D3409",
"&  c #362918",
"*  c #333112",
"=  c #362524",
"-  c #392625",
";  c #332D21",
":  c #342F21",
">  c #3B2826",
",  c #3C2B29",
"<  c #3A2937",
"1  c #2C3838",
"2  c #383B39",
"3  c #590000",
"4  c #650000",
"5  c #6D0000",
"6  c #760000",
"7  c #423504",
"8  c #463B06",
"9  c #433A09",
"0  c #7F2900",
"q  c #412F2D",
"w  c #42312E",
"e  c #433331",
"r  c #4D3732",
"t  c #25423F",
"y  c #4D4510",
"u  c #7D4F2E",
"i  c #202844",
"p  c #343742",
"a  c #3D3C45",
"s  c #413F46",
"d  c #583F44",
"f  c #3F4657",
"g  c #434147",
"h  c #45434A",
"j  c #49464C",
"k  c #5C4346",
"l  c #454455",
"z  c #494754",
"x  c #4B4D54",
"c  c #494F56",
"v  c #534F54",
"b  c #5A4F54",
"n  c #524F5B",
"m  c #575757",
"M  c #624746",
"N  c #664A49",
"B  c #654B4A",
"V  c #6E4154",
"C  c #774B55",
"Z  c #665654",
"A  c #715654",
"S  c #775855",
"D  c #7A5D5B",
"F  c #525160",
"G  c #565A60",
"H  c #5E5A60",
"J  c #5E5A6D",
"K  c #665765",
"L  c #61546E",
"P  c #5A6563",
"I  c #5D646C",
"U  c #5D6E75",
"Y  c #636466",
"T  c #636A6C",
"R  c #6B6B6E",
"E  c #736665",
"W  c #7F726E",
"Q  c #7F786E",
"!  c #767678",
"~  c #7F7279",
"^  c #7F7D79",
"/  c #9B0000",
"(  c #A50000",
")  c #AD0000",
"_  c #B40000",
"`  c #BA0000",
"'  c #802A00",
"]  c #C30000",
"[  c #FF040D",
"{  c #FF151A",
"}  c #FF1E20",
"|  c #FF2627",
" . c #FF2D2F",
".. c #FF3335",
"X. c #A94F22",
"o. c #A75228",
"O. c #9D703D",
"+. c #925E4A",
"@. c #8B5E5F",
"#. c #925E57",
"$. c #A85E4A",
"%. c #9D704C",
"&. c #A77E5D",
"*. c #B37E59",
"=. c #856D69",
"-. c #86726E",
";. c #87786E",
":. c #88796E",
">. c #836D72",
",. c #8F7772",
"<. c #867A75",
"1. c #8B7B75",
"2. c #867979",
"3. c #8B7E7A",
"4. c #977E79",
"5. c #987F79",
"6. c #7F827D",
"7. c #DAA900",
"8. c #ECB700",
"9. c #FFF700",
"0. c #FFFE00",
"q. c #B3875D",
"w. c #85827C",
"e. c #8E827C",
"r. c #97807A",
"t. c #9B837D",
"y. c #BA8B69",
"u. c #D78766",
"i. c #E3906E",
"p. c #EA926E",
"a. c #EF9576",
"s. c #003B9F",
"d. c #005BB8",
"f. c #096EBB",
"g. c #524E80",
"h. c #697290",
"j. c #8A7D80",
"k. c #7C8A87",
"l. c #0089DA",
"z. c #0E99ED",
"x. c #1397E6",
"c. c #0E9CF2",
"v. c #828680",
"b. c #8E8281",
"n. c #8E8983",
"m. c #8A8C8B",
"M. c #918682",
"N. c #9C8882",
"B. c #9F8E89",
"V. c #949193",
"C. c #A48B85",
"Z. c #A08F8A",
"A. c #A4938C",
"S. c #A9958E",
"D. c #A99893",
"F. c #AA9A99",
"G. c #A3A29D",
"H. c #8590AA",
"J. c #ACA7A4",
"K. c #B7B7BB",
"L. c #F7BE93",
"P. c #C6B0A8",
"I. c #CFB3AA",
"U. c #CAB4AC",
"Y. c #CFB8B0",
"T. c #FAC99C",
"R. c #FFD09E",
"E. c #DAC3BA",
"W. c #FFCDA2",
"Q. c #FFD2A3",
"!. c #FFDBA7",
"~. c #FFE3A8",
"^. c #FFE2AF",
"/. c #FFECB5",
"(. c #FFECB8",
"). c #FFF2BA",
"_. c #B89DC9",
"`. c #BEBEC3",
"'. c #C7C8CD",
"]. c #D7D7DC",
"[. c #E5D9DD",
"{. c #FFFCC6",
"}. c #FFFFCC",
"|. c #FEE4DD",
" X c #FFFFD4",
".X c #FFFFD9",
"XX c #C2CAEC",
"oX c #E6E5EA",
"OX c #E8EAF8",
"+X c #F4F7FA",
"@X c #FFFFFF",
/* pixels */
"j 1.W W W W ;.H v e.<.w.q w q w x D.1.> , q - 3.Z h S.Z.A.<.l v ",
"W W W W W W Q > r q , > > S C.A q > > A S.q M.3.H v h s h z v x ",
"A.W W W W W W M.e D C.r.E.O B r.r.B t.t.> , , q r q 1.=.<.m m j ",
"s S.W W W W 3.> q - A M ,.Y.4.k Y.,.,.N M E.t.D e M.W W W -.<.H ",
"v h A.Z.A.<.> S C.t.r.,.,.,.,.,.-.U.,.,.U.,.B > , > 3.-.W W W :.",
"v v F x n m v w > B :.=.U.,.,.,.,.,.,.,.,.,.,.r.N.A = 3.W W W 1.",
"j m ;.W W e.> A t.r.,.U.,.M ,.,.,.=.P.,.e.,.U.,.M C.S > F.W 1.h ",
"A.W W -.w.= A N.n.Z N e.b ,.P.,.M P.P.e.5 n.=.P.r.= e w > l x j ",
"B.W W W - S C.2 ` 4 V.P _ w.U.,.b U.<.P ` P ,.Y.N C., M.2.:.H h ",
"g S.W W w., t 6 ..` U ) | w.1.n._ w.b.(  .3 n.4., A S > <.W :.H ",
"n g A.Z.D., E 4 ) 4 5 ) } v r.m [ v.h [ { ( n.B y < D > 2.W ;.H ",
"H G F G , A U ) | P Z V.m A A k  X< .X.X.X!.< /.$ n.& 3.W W m j ",
"W W W 3.w E )  .} m 4.,.d k B >.).{.. @ . {.L.W.@ ~ W W W :.f ;.",
"W W W <., t | | | 6.,.=.}.Q.>.E ).^.@X  @X~./.T.@ F.W Q S.p C.W ",
"W W W <.t `  .| / n.1.W }.u Q.D /.~.@X  H./.^.Q.$ l S.S.a A.-.W ",
"W W W 6.6 ) / ..) n.:.k ^.u }.K ).~.@XX X {.).p.% J j h h S.W W ",
"W W ;.k.` ) ) ) I Z 5.A + p.R.K ).^.).0 ' }.T.%.9 J v m K f A.W ",
"W W 6.5 ` _ ) ] E A A A Z a.u.T./.^.(.}. XT.a.@ J v H ;.:.G g S.",
"Z.Z.G.6 5 4 ] 1 D > D > A O.p.p.W.W.W.i.p.%.@ J.s K -.W W -.m f ",
"h h c 6 6 6 5 m.= b.& k.O U U o o o o + @ 7 n h H >.W W W W -.m ",
"H v c J.6 6 k.W ;.W T '.'.`.OX@X@X@XoXOXXXh.l ;.W W W W W W W ;.",
"H m h D.^ ^ W W R m +X+Xm.K.oXoX[.@X@X@X8.8.# D.W W W W W W W W ",
"m m m f A.C.! Y K.@XoXm Y V.].O l.|.@Xs.9.= J f A.W W W W W W :.",
"m :.W =.x ! Y K.@X].`.I I.f 7 f.x.l.l.d.0.i 3.G f S.W W W ;.:.g ",
"W W W W ! R `.].@XK.I *.q.% $.o.X.X.o.o.H.1 1.-.m g S.Z.A.:.h j ",
"W W W W ! P oX@X@XG *.q.+.8 f.c.z.z.c.f.s p <.W :.x z x j x x :.",
"W W W ! R `.@X@XoXT +.#.* h.I L L L L g.0.& 2.W =.x v m K m j A.",
"W W W ! R `.@X@XK.! 8 : 8.7.0.0.9.0.0.0._.@ j.>.1.h H :.:.m g Z.",
"W W W W ! Y K.@Xm ! j.% #.@.; ; & V C V &.y.# 3.j m ;.W W ;.F A.",
"Z.W W W A.! Y @X! s S.F.9 y y M.F y S y.y.y.9 v x -.W W W W ;.a ",
"g S.B.A.a s ! ! h v n F L v v v v J 7 % 9 9 J v j A.W W W W -.z ",
"v h n n :.,.F m m m ;.W e.K I v v :.2.b.j.b.3.H j S.W W W W <.v "
};
