/* XPM */
static char *right_2[] = {
/* columns rows colors chars-per-pixel */
"32 32 189 2 ",
"   c black",
".  c #160E00",
"X  c #1F1900",
"o  c #3A0700",
"O  c #231B00",
"+  c #2C1816",
"@  c #2B2A00",
"#  c #332D02",
"$  c #3C3408",
"%  c #2D2615",
"&  c #3A2A1A",
"*  c #2E2721",
"=  c #362524",
"-  c #392625",
";  c #3B2927",
":  c #3C2B2A",
">  c #3A2937",
",  c #2C3738",
"<  c #373B39",
"1  c #5C0000",
"2  c #650000",
"3  c #6C0000",
"4  c #760000",
"5  c #463604",
"6  c #443B0A",
"7  c #463D12",
"8  c #7F2900",
"9  c #412E2B",
"0  c #43312F",
"q  c #453230",
"w  c #4C3834",
"e  c #32413F",
"r  c #4D4712",
"t  c #7D4F2E",
"y  c #242B4A",
"u  c #353842",
"i  c #3D3C45",
"p  c #403F46",
"a  c #583F44",
"s  c #3C4240",
"d  c #3F4163",
"f  c #424147",
"g  c #45444A",
"h  c #49464C",
"j  c #5C4346",
"k  c #434756",
"l  c #494754",
"z  c #4B4D54",
"x  c #4D4F59",
"c  c #534F54",
"v  c #5A4F54",
"b  c #524F5B",
"n  c #545654",
"m  c #595456",
"M  c #624746",
"N  c #664A49",
"B  c #654B4A",
"V  c #75524D",
"C  c #655654",
"Z  c #715654",
"A  c #795855",
"S  c #7A5D5B",
"D  c #534F60",
"F  c #525160",
"G  c #575A60",
"H  c #5E5A61",
"J  c #5E5A69",
"K  c #665565",
"L  c #715C63",
"P  c #645C7A",
"I  c #5C6262",
"U  c #586466",
"Y  c #5D626B",
"T  c #5D7371",
"R  c #626364",
"E  c #63666A",
"W  c #646A6B",
"Q  c #6C6C6E",
"!  c #746767",
"~  c #7F726E",
"^  c #676D74",
"/  c #7F7276",
"(  c #767678",
")  c #767C78",
"_  c #7F7D7C",
"`  c #990000",
"'  c #A30000",
"]  c #AD0000",
"[  c #B40000",
"{  c #BA0000",
"}  c #802A00",
"|  c #FF040D",
" . c #FF0F18",
".. c #FF1A1C",
"X. c #FF2627",
"o. c #FF2C2D",
"O. c #FF2F31",
"+. c #FF3233",
"@. c #FF3839",
"#. c #8B533C",
"$. c #AA5329",
"%. c #A55430",
"&. c #9D703D",
"*. c #8B5142",
"=. c #925E4A",
"-. c #9D704C",
";. c #A77E5D",
":. c #856D69",
">. c #86726E",
",. c #87786E",
"<. c #89796E",
"1. c #836D72",
"2. c #8F7772",
"3. c #857A77",
"4. c #8A7B75",
"5. c #8A7E7A",
"6. c #987F79",
"7. c #7E827D",
"8. c #ECB400",
"9. c #FFC300",
"0. c #FFFE00",
"q. c #85827C",
"w. c #8E817C",
"e. c #93827B",
"r. c #9B837D",
"t. c #B68968",
"y. c #B98B6A",
"u. c #CC8B6A",
"i. c #E3906E",
"p. c #EA926E",
"a. c #F09576",
"s. c #003B9F",
"d. c #004D98",
"f. c #005BB8",
"g. c #106EB2",
"h. c #6C7691",
"j. c #897B80",
"k. c #7C8A88",
"l. c #0089DB",
"z. c #0F9CF3",
"x. c #0BA1FF",
"c. c #828680",
"v. c #8F8984",
"b. c #918483",
"n. c #9E8A84",
"m. c #93899C",
"M. c #959490",
"N. c #A88787",
"B. c #A38C84",
"V. c #A5938D",
"C. c #A9958E",
"Z. c #A89690",
"A. c #A99897",
"S. c #8591AA",
"D. c #B79CAC",
"F. c #B7B7BB",
"G. c #C5A89D",
"H. c #F7BE93",
"J. c #C6B0A8",
"K. c #CAB4AC",
"L. c #CEB4AC",
"P. c #CFB8B0",
"I. c #FAC99C",
"U. c #FFD09E",
"Y. c #DAC3BA",
"T. c #FFCDA2",
"R. c #FFD2A3",
"E. c #FFDBA7",
"W. c #FFE3A8",
"Q. c #FFE2AF",
"!. c #FFECB5",
"~. c #FFECB8",
"^. c #FFF2BA",
"/. c #BF9DC0",
"(. c #BFBFC3",
"). c #C1C2C6",
"_. c #C6C6CB",
"`. c #D9D9DD",
"'. c #E9D9DD",
"]. c #FFFCC6",
"[. c #FFFFCC",
"{. c #FEE4DD",
"}. c #FFFFD4",
"|. c #FFFFD9",
" X c #C2CAEC",
".X c #E8E8ED",
"XX c #EAEBF4",
"oX c #F7FFFF",
"OX c white",
/* pixels */
"l 4.~ ~ ~ ~ 3.; w 0 : - ; A B.Z : 9 ; Z C.9 b.e.m h C.M.V.2.l c ",
",.~ ~ ~ ~ ~ >.b.q S n.r.Y.+ B r.r.B r.r.- : : 9 w 0 g g p l c z ",
"Z.~ ~ ~ ~ ~ q.; 0 : V M 2.P.2.j P.2.2.M M Y.r.S w E 4.:.,.G m l ",
"f C.~ ~ ~ >.- A B.r.4.2.2.2.2.2.>.K.2.2.P.2.N : 0 9 5.~ ~ >.,.G ",
"z g V.n.n.>.Y : = B 2.>.K.2.2.2.2.2.2.2.2.2.2.6.n.Z = 5.~ ~ ~ ,.",
"n c F n F H : Z r.r.2.P.2.j 2.2.2.:.J.2.w.2.K.<.j B.A : w.~ ~ 4.",
"g G ,.~ w.; Z n.v.C M w.C 2.J.2.j J.J.w.2 v.:.J.6.= w w ; 5.4.g ",
"Z.~ ~ ~ = A V., { 2 M.I [ q.J.2.v K.,.I { I 2.P.M V.9 b n h z h ",
"V.~ ~ ~ w.: e 3 @.{ T ] X.c.2.v.[ q.v.' +.1 b.6.: Z A 9 5.,.H g ",
"g C.~ ~ q.: ! 2 ] 2 3 ] ..m r.n | q.g |  .' v.j r > S - ,.>.,.H ",
"c p V.C.; S W ] X.U C M.m Z Z a }.> |.|.|.E.> ~.# b.= 5.~ ~ ,.H ",
"H H F G : ! { ` X.n 6.<.a M N 1.^.].. # . [.H.R.# 5.~ ~ ~ ~ G h ",
"/ ~ ~ 5.0 < ] O...q.2.:.].E./ ! ^.W.oX  oXQ.~.T.# / ~ ~ ~ <.s 4.",
"~ ~ ~ ,.9 s ] X...7.2.1.].t E.L ^.W.OX  m.~.Q.R.# A.~ ~ Z.u C.~ ",
"~ ~ ~ ~ w.< ] X...k.<.j E.t }.C ~.W.OXo o ].^.p.$ k C.C.u C.~ ~ ",
"~ ~ ~ ~ 3.e ] o.X.n r.Z @ i.U.K ^.Q.^.} 8 [.I.-.6 J h h g C.~ ~ ",
"~ ~ ~ / c.4 ] O.' R Z Z C a.u.I.!.E.~.}.}.I.a.# j.K n H H g C./ ",
"~ ~ ~ 3.k 4 ] O.] , A ; Z &.a.i.R.T.T.i.p.-.@ 3.K l H ,.>.n s Z.",
"C.n.C.s U 4 1 @.] k.- k.+ ^ Y X O X O @ # $ A.A.g H >.~ ~ >.G i ",
"g h g ,.,.k.4 2 3 q.Q _.)..XOXOXOXOXXXXX Xh.k g G >.~ ~ ~ ~ 2.G ",
"H c h V.~ ~ _ 7.7.^ _._.F.XXF.F.'.OXOXOX8.8.6 3.~ ~ ~ ~ ~ ~ ~ >.",
"H n h C.~ ~ ~ ~ ) R _.R I A.W + l.{.OXs.0.* k Z.~ ~ ~ ~ ~ ~ ~ ~ ",
"h H H u V.V.>.( Q (.XXR N.G.L.5 z.l.l.f.0.y K i Z.~ ~ ~ ~ ~ ~ <.",
"H ,.>.,.x < V.( I .XOXU #.;.#.6 $.$.$.%.S., 2.G s Z.~ ~ ~ ~ <.g ",
",.~ ~ ~ ~ ~ ) Q ).`.OXY #.;.t.5 x.z.g.d.l u 3.>.G g C.n.V.,.h h ",
"~ ~ ~ ~ ~ ~ ( Q F.`.OXE V y.y.% P J ^ d 9.$ / ~ ,.z z g h z z ,.",
"~ ~ ~ ~ ~ ~ ( Q F.`.OXW 5 7 % 0.0.0.0.8.% j.~ ~ >.z n H H n h V.",
"~ ~ ~ ~ ~ ~ ( Q ).`.OXR j.6 D.m.D./.% & _ / ~ >.4.h H >.>.G g V.",
"~ ~ ~ ~ ~ ~ b ) E F.OXI / r V *.;.*.7 k Z.V.V.,.l m >.~ ~ >.F V.",
"C.~ ~ ~ V.C.g h _ ( E B.A.$ =.=.y.u.$ J g h g z z >.~ ~ ~ ~ ,.i ",
"g C.V.V.i g c c c h F F n D r r 7 $ j.b.e.m J n h V.~ ~ ~ ~ >.l ",
"z g F z ,.4.m J c J e.b.0 q 0 > b b.5.; ; w 9 H g C.~ ~ ~ ~ 3.n "
};
