/* XPM */
static char *trap1[] = {
/* columns rows colors chars-per-pixel */
"32 32 18 1 ",
"  c #0E071B",
". c #391F21",
"X c #5D2C28",
"o c #333941",
"O c #534F54",
"+ c #5E5A60",
"@ c #7F726E",
"# c #8A4836",
"$ c #BF6F4A",
"% c #E69C69",
"& c #6D758D",
"* c #948581",
"= c gray62",
"- c #8B93AF",
"; c gray74",
": c #B3B9D1",
"> c #DAE0EA",
", c white",
/* pixels */
"OO++@@++O+@@@++OO    @@+O*@@@@@O",
"O@@@@@@+O@@@@@@  ;;, @@@+O***@OO",
"@@@@@@  O@@@@@ =;;, @@@@+OOOOOOO",
"*@@@@ , O*@@@ =;;, @@@@@O+@@@++O",
"O*@@ ;, O*@@@ =;;, ***@O    @@@+",
"OO** ;;, *@@@      ++OO =;;; @@@",
"OO++ ;;;, *  :::o--  @ =;;;,, @@",
"O+@@ =;;,  :::::o----  =;;,   @O",
"*@@@@ == :::::::o-----o ,, OOOOO",
"*@@@@@  oo::::::o-----o&  +@@@+O",
"O*@@@@@ >>o::::o-----o&& @@@@@@+",
"  ***@ >>>>o::>>::-oo&&&& @@@@@+",
" , ++O >>>>o:>    :&&&&&& @@@@+O",
" ;,   >>>>>>, #X$$ -&&&&&&   @O@",
" ;;,, >>>>>, ##.$$$ -&&&&& == *@",
"@ ;;; oooo>, ##...X -o&&&& ;;= @",
"@ =;; &&&&o- X...%% ,>oooo ;;; @",
"@@ == &&&&&- $$$.%% ,>>>>> ,,;; ",
"@@@   &&&&&&- $$X% ,>>>>>>   ,; ",
"***O+@ &&&&&&:    >:o>>>> @@@ , ",
"OOO@@@ &&&&oo-::>>::o>>>> @@@@  ",
"+OO*@@@ &&o-----o::::o>> @@@@@@@",
"+OO*@@  &o-----o::::::oo  @@@@@@",
"O++O* ,, o-----o::::::: == @@@@@",
"+@   ,;;=  ----o:::::  ,;;= @@@O",
"@@ ,,;;;= @  --o:::  @ ,;;; *@OO",
"@@@ ;;;= @@@@      @@@@ ,;; OOO@",
"@@@@    *@@@@ ,;;= @@@@@ ,; +OO*",
"@@@@@@@O*@@@@ ,;;= *@@@@ , @@+O*",
"@@@@@@+OO*@@ ,;;= OO***@  @@@@+*",
"*@@@**OOOO* ,;;  O++OOOOO@@@@@@O",
"O***OOOOOO+    OO+@@@++OO*@@@@@O"
};
