/* XPM */
static char *up_1[] = {
/* columns rows colors chars-per-pixel */
"32 32 167 2 ",
"   c #111A16",
".  c #210905",
"X  c #321E1C",
"o  c #09221E",
"O  c #3A2B00",
"+  c #3C3402",
"@  c #2F201E",
"#  c #173330",
"$  c #342423",
"%  c #392624",
"&  c #3B2826",
"*  c #3D2C2B",
"=  c #3F302E",
"-  c #2E3133",
";  c #2C3339",
":  c #353639",
">  c #4D0000",
",  c #530000",
"<  c #5B0000",
"1  c #650000",
"2  c #6A0000",
"3  c #760000",
"4  c #413500",
"5  c #423807",
"6  c #533E0A",
"7  c #5C321E",
"8  c #412E2C",
"9  c #43312F",
"0  c #4D302C",
"q  c #443230",
"w  c #4A3634",
"e  c #4D3B39",
"r  c #583D3D",
"t  c #3D3C44",
"y  c #413F46",
"u  c #394444",
"i  c #45434A",
"p  c #49464C",
"a  c #5E4343",
"s  c #494754",
"d  c #4B4C53",
"f  c #4B4B57",
"g  c #534F54",
"h  c #504F58",
"j  c #5E5654",
"k  c #5C5D5E",
"l  c #614645",
"z  c #664B4A",
"x  c #665654",
"c  c #685654",
"v  c #715654",
"b  c #785654",
"n  c #705D5C",
"m  c #7A5D5B",
"M  c #5B615E",
"N  c #66615F",
"B  c #78615F",
"V  c #525160",
"C  c #565B61",
"Z  c #5E5A60",
"A  c #5E5A68",
"S  c #4C6764",
"D  c #5B6567",
"F  c #587673",
"G  c #656362",
"H  c #646668",
"J  c #67686A",
"K  c #6A6C6E",
"L  c #706461",
"P  c #706A67",
"I  c #706A68",
"U  c #7F726E",
"Y  c #7F786E",
"T  c #676C76",
"R  c #667572",
"E  c #6E7678",
"W  c #7C7375",
"Q  c #767679",
"!  c #8B0000",
"~  c #A30000",
"^  c #AD0000",
"/  c #B40000",
"(  c #B90000",
")  c #C20000",
"_  c #FF0101",
"`  c #FF0C0C",
"'  c #FF1C1D",
"]  c #FF2627",
"[  c #FF2C2E",
"{  c #FF3335",
"}  c #FF393B",
"|  c #9A5E4A",
" . c #A25E4A",
".. c #A77446",
"X. c #B57E4C",
"o. c #866E69",
"O. c #86726E",
"+. c #87786E",
"@. c #89796E",
"#. c #8F7772",
"$. c #867A75",
"%. c #8C7C75",
"&. c #877A7C",
"*. c #8A7D7A",
"=. c #977E79",
"-. c #8E817B",
";. c #95817B",
":. c #9B837D",
">. c #7D7E81",
",. c #867C8C",
"<. c #7C8184",
"1. c #888784",
"2. c #86838C",
"3. c #928782",
"4. c #9D8680",
"5. c #9D8B81",
"6. c #9F8E89",
"7. c #9A918A",
"8. c #868393",
"9. c #888794",
"0. c #8D8A94",
"q. c #908E98",
"w. c #959999",
"e. c #A48C85",
"r. c #A48F89",
"t. c #A4928C",
"y. c #A9958E",
"u. c #A79692",
"i. c #A89690",
"p. c #AC9C97",
"a. c #B99998",
"s. c #AEA09B",
"d. c #B2A09A",
"f. c #A3A3A8",
"g. c #A8A8AC",
"h. c #BFA8A0",
"j. c #AEAEB2",
"k. c #B7B7BB",
"l. c #C6B0A8",
"z. c #CBB5AD",
"x. c #CFB8AF",
"c. c #D2BCB3",
"v. c #D9C2B9",
"b. c #B7BEC5",
"n. c #BEBEC3",
"m. c #BEE7ED",
"M. c #C0C0C4",
"N. c #C5C5CA",
"B. c #CACACF",
"V. c #CECED3",
"C. c #CCD0D6",
"Z. c #D0D0D5",
"A. c #D4D4DD",
"S. c #D9D9DD",
"D. c #C0DFE5",
"F. c #CAE6EB",
"G. c #DAE2EA",
"H. c #C6F9FF",
"J. c #D9F7FC",
"K. c #D5F8FB",
"L. c #E1E2E6",
"P. c #E5E5EA",
"I. c #E7E8EE",
"U. c #E9E9EE",
"Y. c #EDEDF1",
"T. c #E5FFFF",
"R. c white",
/* pixels */
"p $.U U U U +.k g -.*.-.* 9 8 8 d p.%.& & 8 & %.Z i u.r.r.+.s g ",
"U O.U U U U Y & e 0 = & = b :.v.X & $ v t.8 3.*.x g i u i s g f ",
"6.U U U U U $.3.w 9 v :.:.$ z #.v.l v.;.v 9 * 8 w * *.O.+.C Z p ",
"i u.U U U *.% * * v :.#.z.#.=.a #.#.#.a @ v e.m q 3.O.U U U +.C ",
"g i u.6.u.% b r.:.:.@ z #.z.#.#.#.#.#.z.x.#.z & 9 & *.U U U U @.",
"g g V h h D 9 % z =.=.#.#.o.#.#.l l #.#.o.z.#.;.4.b & *.U U U %.",
"i C +.U *.& v 4.:.a #.#.o.l.#.#.#.%.l #.#.#.#.#.z * B & p.U $.p ",
"r.U O.*.% v 4.=.r x.#.#.l.h.#.#.l.O.#.z.o.#.#.z.#.v q 9 & s s p ",
"6.O.U $ b r.$ z c.#.l #.l.o.#.#.d.z.a #.l.@.#.#.z.;.& 3.$.@.k i ",
"u u.U $.% * v v #.=.z #.#.%.z #.z.#.z #.z.a =.l #.#.v & $.U +.Z ",
"h t t.r.s.% e.z 4.x v #.:.x N j #.#.x ;.#.z #.;.x ;.4.$ *.O.+.Z ",
"Z Z V C % e.v c L 3 n 4.G 2 ( ^ 3.5.3 N 4.c ;.1.3 n v y.% $.C p ",
"O.U U *.* m = L 3 3 I B 1 / , ] 1.G 3 3 R 3 N 7.3 L 9 * 8 *.t %.",
"U U U $.9 q e v K 3 3 R / } > ] F ( 1 ( 2 3 3 B B v = 3.8 i y.U ",
"U U U $.% 3.8 v v N P 3 ( ~ ^ , ) < ^ ^ ( 3 P v c v = s.i y.U U ",
"U U U U Y *.* v m = v B F ~ { / F ^ { ^ D B v = m v q d i y.U U ",
"U U U U @.Z 8 m q e v x ^ [ ] S M ] [ ^ G v v e q m 9 k k y y.U ",
"U U U $.i s A 0 u 9 b k ] ] ] D S ] ] ^ L v b 8 u 0 Z +.O.C y i.",
"t.r.y.t Z +.;.- Q <.@ S ] ] ^ # ' ] ] D $ b X Q 1.: $.U U O.C y ",
"i i i O.Y +.- q.S.J D.` ] ] o m.` [ '   G.. C.N.Q : *.O.U U O.C ",
"k g p t.U $.; >.1.k T.` ] ` J.J.` ] ` T.k.b.P.P.H - 4 &.U U U $.",
"Z g p y.U W 6 ; Q n.J.` ] _ R.R._ ] ` K.S.g.S.R.I.D a.+ &.O.U U ",
"g Z Z t t.u.+  .T P.R._ _ H.R.R._ ! ! R.R.S.V.R.R.P.C | 5 W U +.",
"C +.U +.f t h.4 T L.R.R.F.R.R.R.R.R.R.R.R.R.R.N.R.R.I.T 5 &.@.i ",
"U U U U U +.V s I U.Z.R.V.R.R.R.R.R.R.R.R.R.R.R.R.R.R.n.O =.i i ",
"U U U U U U @.i Q k.S.R.V.R.R.R.R.R.R.R.R.R.R.R.R.R.R.L.E s d $.",
"U U U U U U O.i Q k.L.S.S.Z.R.R.R.R.R.R.R.R.V.R.B.R.R.R.J p p t.",
"U U U U U O.@.i Q M.j.L.g.S.R.R.B.R.R.R.R.S.f.R.S.S.R.R.J Z i t.",
"U U U U U Y Z p Q B.k.U.k.S.R.R.A.V.R.R.Z.L.k.j.Y.b.k H Y O.V t.",
"6.U U O.6.i.p g i Q J B.C b.G.R.L.S.S.S.U.M.k V.H J U U U U +.t ",
"t :.3.t.t y p p p y g E X.....7 D M.k.N.M K Q W : e.U U U U U i ",
"9.2.8.s p.8.0.0.0.0.q.s w.8.8.2.2.,.2.y w.2.2.2.8.2.9.g w.2.2.9."
};
