/* XPM */
static char *wall[] = {
/* columns rows colors chars-per-pixel */
"32 32 170 2 ",
"   c #3E0E0D",
".  c #3E1416",
"X  c #2F261D",
"o  c #32281E",
"O  c #252B25",
"+  c #362B24",
"@  c #3B2F24",
"#  c #2A3224",
"$  c #3F3226",
"%  c #38352E",
"&  c #34382E",
"*  c #470000",
"=  c #4B0100",
"-  c #4E0D00",
";  c #530100",
":  c #5B0502",
">  c #530E05",
",  c #5D0D00",
"<  c #5C1003",
"1  c #561A00",
"2  c #5B1B00",
"3  c #5B130A",
"4  c #461B16",
"5  c #620502",
"6  c #6A0000",
"7  c #660909",
"8  c #730000",
"9  c #790500",
"0  c #720E0F",
"q  c #611100",
"w  c #651B00",
"e  c #6C1C00",
"r  c #62150B",
"t  c #741E00",
"y  c #660F16",
"u  c #661B16",
"i  c #6B1C17",
"p  c #6F1D18",
"a  c #701010",
"s  c #791212",
"d  c #76191A",
"f  c #5D2200",
"g  c #632400",
"h  c #6A2200",
"j  c #742A00",
"k  c #79201E",
"l  c #6D1A22",
"z  c #741C24",
"x  c #7E1E27",
"c  c #7E1E2A",
"v  c #493322",
"b  c #433528",
"n  c #4D372B",
"m  c #453929",
"M  c #4B3B2C",
"N  c #523D2C",
"B  c #533F32",
"V  c #6D2422",
"C  c #742724",
"Z  c #7B2A26",
"A  c #3F4534",
"S  c #55402D",
"D  c #5E432E",
"F  c #564232",
"G  c #5E4732",
"H  c #52433B",
"J  c #5B4E3B",
"K  c #644634",
"L  c #694E34",
"P  c #634E3B",
"I  c #694E3A",
"U  c #6E5136",
"Y  c #6C513F",
"T  c #6E593F",
"R  c #755237",
"E  c #7E5A36",
"W  c #755339",
"Q  c #79563B",
"!  c #76593F",
"~  c #7C593D",
"^  c #7C5A44",
"/  c #7B795A",
"(  c #820A03",
")  c #8E040E",
"_  c #91080F",
"`  c #8C1007",
"'  c #81160A",
"]  c #801314",
"[  c #8C1E10",
"{  c #961616",
"}  c #921E10",
"|  c #981919",
" . c #80221C",
".. c #952510",
"X. c #801620",
"o. c #921C22",
"O. c #A11C2A",
"+. c #802226",
"@. c #802E26",
"#. c #88212A",
"$. c #882D2A",
"%. c #972826",
"&. c #982A28",
"*. c #802F37",
"=. c #883A37",
"-. c #A02B23",
";. c #A1232B",
":. c #A92928",
">. c #AA282D",
",. c #A03A28",
"<. c #AA2634",
"1. c #AA2934",
"2. c #A03A30",
"3. c #AA3834",
"4. c #B03834",
"5. c #B5423E",
"6. c #83633E",
"7. c #AA3D45",
"8. c #815C44",
"9. c #AA4945",
"0. c #B2504E",
"q. c #846242",
"w. c #8B6644",
"e. c #896A4B",
"r. c #966C44",
"t. c #996E44",
"y. c #847146",
"u. c #8B7146",
"i. c #8E7B4A",
"p. c #937A49",
"a. c #A57A52",
"s. c #AD7A52",
"d. c #7B8562",
"f. c #99814D",
"g. c #9A8451",
"h. c #AE874A",
"j. c #A48B53",
"k. c #AB8D54",
"l. c #AB835E",
"z. c #A6885A",
"x. c #B18352",
"c. c #B78C56",
"v. c #AA9355",
"b. c #AC9658",
"n. c #A89A5B",
"m. c #B29355",
"M. c #B1985C",
"N. c #AEA260",
"B. c #B9B36C",
"V. c #D5B569",
"C. c #DDB669",
"Z. c #DCBB6D",
"A. c #D3A275",
"S. c #D8A678",
"D. c #DEBD71",
"F. c #E0AF66",
"G. c #E0B769",
"H. c #E2BA6E",
"J. c #E4BC70",
"K. c #DCC06F",
"L. c #DEC272",
"P. c #D6CD7A",
"I. c #E1C575",
"U. c #ECC874",
"Y. c #E6C479",
"T. c #E5C979",
"R. c #EFD07B",
"E. c #FFF98E",
"W. c #FFFB92",
"Q. c #FFFF98",
/* pixels */
"V V u u i p Z x b.k @.@.@.@.@.@.2.2.9.9.9.9.9.7.K.| -.-.-.:.6 4 ",
"V V u u i p Z X.b.=.@.@.@.@.@.@.2.2.9.9.9.9.2.%.K.| -.-.3.-.6 4 ",
"V V u u p p Z a b.] @.@.@.@.@.@.2.2.,.9.9.2.2.&.K.| &.-.3.5.6 4 ",
"V V V u i p Z a v.+.@.@.@.@.@.@.2.2.0.9.9.2.2.&.K.| -.-.-.5.6 4 ",
"u u V u i p Z a v.+.@.@.@.@.@.@.2.2.2.2.2.2.2.&.K.| -.-.-.5.6 4 ",
"u u u V C C Z a k.Z @.@.@.@.@.Z 0.2.2.2.2.2.2.&.L.| -.&.-.5.6 4 ",
"y y l l z z c 7 j.d d =.k +.C *.7.%.&.&.&.&.&.o.V.) | | { 3.5 4 ",
"y.i.i.i.p.g.j.j.K.P.M.M.M.M.M.j.C.D.L.L.L.L.L.Z.W.Q.L.L.L.U.d.4 ",
"y.* - - - w h < < , q q q t e ; Y.6 ( ( ( ( ( 6 8 8 8 8 9 9 6 4 ",
"u.- 1 1 f g g h h h h h h j j w Y.( [ [ [ [ [ [ ' s ' ' ' ' 6 4 ",
"u.- 1 1 g g h h e h h e h j j q Y.( [ [ [ [ [ [ [ ' ' ' ' ' 6 4 ",
"y.2 f f g g h h j h h h t j j w Y.( [ [ [ [ [ [ [ [ ' ' ' ..6 4 ",
"y.2 1 1 1 2 w g h j j j j j j w Y.( [ [ [ [ [ [ [ [ [ ' ' ' 6 4 ",
"y.2 1 1 1 f 2 g w j j j j j j w Y.( [ [ [ [ [ [ [ [ ' ' ' ' 6 4 ",
"6.> - - - > < < < t e e e e e q D.8 ( ( ( ( ( 8 8 8 8 9 8 9 6 4 ",
"n.i.f.i.B.g.j.b.k.M.M.M.M.M.M.j.W.Q.Z.Z.L.L.L.L.D.I.T.T.T.R.d.. ",
"= ; : * = : : : b.X.#.#.#.#.#.+.<.;.>.>.>.>.1._ L.6 8 8 8 9 6 4 ",
"3 3 3 3 r r r 7 b.#.$. . . . . .-.-.3.3.3.3.3.{ I.8 s [ [ } 6 4 ",
"3 3 3 3 3 r r 5 b.#. . . . . . .-.-.-.3.3.3.-.| I.( ..[ [ [ 6 4 ",
"3 > > > > r r 5 b.#. . . . . . .-.-.-.3.3.3.-.| I.8 [ [ [ [ 6 4 ",
"3 > > > 3 3 < ; b.#.$. . . . . .-.-.3.3.3.3.-.| I.8 [ [ [ [ 6 4 ",
"> > > > 3 r < ; b.#.$.$. . .$.$.4.3.3.3.3.3.-.{ I.8 ' ' [ [ 6 4 ",
"* * * * = 5 ; = b.] #.#.s ] s 0 1.;.;.{ { <.1.O.D.6 8 8 8 ` 6 4 ",
"N.N.p.i.a.p.j.k.h.m.m.m.m.m.m.k.G.E.E.C.C.C.C.C.F.H.H.J.J.U./   ",
"v v n n N N B K O q.D D G G D D ^ U W W ~ ~ ^ 8.& a.W W Q ~ H S ",
"e.e.L u.R Q 8.r.& l.z.l.q.l.l.q.x.S.s.s.S.s.x.c.A S.A.A.s.S.c.% ",
"$ m n + @ N N n O L F F F F F B ^ Y T T I ^ ! P # w.I Y H ! J M ",
"n m m n n N N n # E F G G G G G ! ! ! ! ! T J P & t.! ! ! ^ P M ",
"M v v n N S S m # S M G G G G G ! ! ! J T ! ! P & r.! T J ! J M ",
"M M b m n N S n X 6.G G G F G G ~ ^ W J ^ ^ ! J & t.! Y ! ! P M ",
"b $ b $ b M m M # L M M M F F M P P P P P P P P & 6.J ^ P P I M ",
"X X X X o o o o o % $ @ % + @ @ M M M M M M M M M M M M M M M M "
};
