/* XPM */
static char *gob11[] = {
/* columns rows colors chars-per-pixel */
"32 32 50 1 ",
"  c #030402",
". c #233B08",
"X c #343B00",
"o c #2E1E22",
"O c #3A1A3B",
"+ c #252624",
"@ c #323234",
"# c #640A0E",
"$ c #3F5A1F",
"% c #525F02",
"& c #764A00",
"* c #534721",
"= c #1B0F41",
"- c #253141",
"; c #5C3C5D",
": c #444444",
"> c #474846",
", c #534F54",
"< c #545456",
"1 c #5B7C40",
"2 c #465063",
"3 c #5E5A60",
"4 c #7E5E7F",
"5 c #686967",
"6 c #6D6D6E",
"7 c #7F726E",
"8 c #971E2A",
"9 c #C70000",
"0 c #FF2627",
"q c #916600",
"w c #CB3044",
"e c #FF4460",
"r c #81850B",
"t c #93AC3E",
"y c #C79D00",
"u c #E3B700",
"i c #FFD600",
"p c #FFFC00",
"a c #8B8244",
"s c #8AA456",
"d c #95A052",
"f c #81A669",
"g c #A1C563",
"h c #9F7FA0",
"j c #888A86",
"k c #948581",
"l c #AAACA8",
"z c #C09FC1",
"x c #DBBADC",
"c c #F9F7DA",
/* pixels */
",,337733,37773q,,q777773,k77777,",
",7777773,77q7qpqqp.777773,kkk7,,",
"77777777,77pqyyyqy$.77773,,,,,,,",
"k7777777,k7y&&pq&p1$.7.7,377733,",
",k777773,k.9uiiiuyf1$.$.37777773",
",,kkk73,,.$1y0uuy111$11$.7777777",
",,3333,,,.1f11$$$$$111f1$.777777",
",3777773.$11$$ggggg$$1111.kkk77,",
"k7777777.$1$ggggggggt$11$$.,,,,,",
"k7777777.$$ggggggggggt$111.7773,",
",k777777X$tggggggggggtt$1$.77773",
",,khk773XtggggggggggtXX111.77773",
"333hh,,hXtgggggggggX%ggX1$.7773,",
"777hxh3hhtgga##aggXtgrtX$.7777,7",
"777hxxhhchga8wo#dgtg%tX%$.77k,k7",
"7777hxxhcch#weosggg%tXr%.,kk,k77",
"7777hxxxzcchoosgggtrX%%X73,,,k77",
"77777hxxhccchggggtrr%%X773,33,k7",
"7777,,hxxhxcchtttrr%%X773,3773,k",
"kkk,377hxxhxcchXXX:::@kk,377773,",
",,,77777hx*hxcch6666<:@,37777773",
"3,,k77777h*ihxcch6<Oj<:@77777777",
"3,,k777777 ++hxcchO4O><:@7777777",
",33,kk77k, +>+hxcc4hO 6:@7777777",
"37773,kk,3 >>--hx4hO5 6<@k77777,",
"7777773,3O4 +5O;4h;5> 6<:@kkk7,,",
"7777777,77O +O4hh;22-=66:@,,,,,7",
"7777777,k777 +OOO+===@66:@,33,,k",
"7777777,k7777 >lj5> @@66:@3773,k",
"7777773,,k7777 >>>+ @@<6:@77773k",
"k777kk,,,,kkkk jj5> ,@<6@777777,",
",kkk,,,,,,333,,    773@@,k77777,"
};
