/* XPM */
static char *gob6[] = {
/* columns rows colors chars-per-pixel */
"32 32 53 1 ",
"  c #030402",
". c #1D2800",
"X c #2F3900",
"o c #233B08",
"O c #343B00",
"+ c #2E1E22",
"@ c #3A1A3B",
"# c #252624",
"$ c #323234",
"% c #640A0E",
"& c #3F5A1F",
"* c #444A00",
"= c #4B5209",
"- c #525F02",
"; c #764A00",
": c #76590C",
"> c #707010",
", c #1B0F41",
"< c #253141",
"1 c #5C3C5D",
"2 c #444444",
"3 c #474846",
"4 c #534F54",
"5 c #545456",
"6 c #5B7C40",
"7 c #465063",
"8 c #5E5A60",
"9 c #7E5E7F",
"0 c #686967",
"q c #6D6D6E",
"w c #7F726E",
"e c #971E2A",
"r c #C70000",
"t c #FF2627",
"y c #916600",
"u c #CB3044",
"i c #FF4460",
"p c #81850B",
"a c #93AC3E",
"s c #C79D00",
"d c #E3B700",
"f c #FFD600",
"g c #FFFC00",
"h c #8B8244",
"j c #95A052",
"k c #A1C563",
"l c #9F7FA0",
"z c #888A86",
"x c #948581",
"c c #AAACA8",
"v c #C09FC1",
"b c #DBBADC",
"n c #F9F7DA",
/* pixels */
"4488ww8848www8844wwwwww84xwwwww4",
"4wwwwww84wwwwww84xwwwwww84xxxw44",
"wwwwwwww4wwwwyygygyywwww84444444",
"xwwwwwww4xwwwgys;sygwwww48www884",
"4xwwwww84xwwos;ygy;soxw48wwwwww8",
"44xxxw844xwo&sd;f;ds&o44wwwwwwww",
"4488884444O&6srftfrs6&O4xwwwwwww",
"48wwwww88O-p&6sdrds6&p-O4xxxxww4",
"xwwwwwwwwOpa&6&666&6&apO44444444",
"xwwwwwwwO-paa&&6&6&&aap-O88www84",
"4xwwOOwwOlaakk&&&&&kkaapOwwOOwwl",
"44xOpa-Olnlkkkk&k&kkkkapOO-apOlv",
"8888OpapvnlkkkkkkkkkkkapOpapOwvb",
"wwwwwO-lnnlkkkkkkkkkkkapOp-Owlnb",
"wwwwwwOlnnl%%hkkkkkh%%%:O-Owxvnb",
"wwwwwwwlnnl+uehkkkheu++%OOxxlbnv",
"wwwwwwwlnnl+iu%jkj%ui++=O844lnnl",
"wwwww84lnnl++++kkk++++>  848vnbl",
"wwww448lnnlpakkkkkkkapO$$$8lbnlx",
"xxx48w$lnnlO-paaaaap-O5552 lbbl4",
"444www lnnl5OOOOOOOOO5qq23lbblw8",
"844xww$lnnlqqq5gfg5qqqq3@@lbblww",
"844xww lnnl35qqfgfqq53 @11bbl@ww",
"4884x@@19991@03###3003  @@@111@w",
"8www8@lllll9@##303###< $$,,@@@w4",
"wwww$5@@1@@@<<<333<<<# $$25$xw44",
"wwww$q,<77,30.X0c0X.03# $$52$44w",
"wwww$qq,,,#03X.303.*30# $$55$44x",
"wwww$qq$$$ #0zz   X**# $$$$5$84x",
"wwwww$q$$xw 000 $ zcc#$$48w$ww8x",
"xwwwxx$444xx   w4#30z 444wwwwww4",
"4xxx4444448884444#0zz 844xwwwww4"
};
