/* XPM */
static char *gob7[] = {
/* columns rows colors chars-per-pixel */
"32 32 51 1 ",
"  c #030402",
". c #1D2800",
"X c #233B08",
"o c #343B00",
"O c #2E1E22",
"+ c #3A1A3B",
"@ c #252624",
"# c #323234",
"$ c #640A0E",
"% c #3F5A1F",
"& c #525F02",
"* c #764A00",
"= c #1B0F41",
"- c #253141",
"; c #5C3C5D",
": c #444444",
"> c #474846",
", c #534F54",
"< c #545456",
"1 c #5B7C40",
"2 c #465063",
"3 c #5E5A60",
"4 c #7E5E7F",
"5 c #686967",
"6 c #6D6D6E",
"7 c #7F726E",
"8 c #971E2A",
"9 c #C70000",
"0 c #FF2627",
"q c #916600",
"w c #CB3044",
"e c #FF4460",
"r c #81850B",
"t c #93AC3E",
"y c #C79D00",
"u c #E3B700",
"i c #FFD600",
"p c #FFFC00",
"a c #8B8244",
"s c #8AA456",
"d c #95A052",
"f c #81A669",
"g c #A1C563",
"h c #6F788D",
"j c #9F7FA0",
"k c #888A86",
"l c #948581",
"z c #AAACA8",
"x c #C09FC1",
"c c #DBBADC",
"v c #F9F7DA",
/* pixels */
",,337733,377733,,7777773,l77777,",
",7777773,7777773ql7q77773,lll7,,",
"77777777,77777X7pqqpq7q73,,,,,,,",
"l7777777,l777X%Xyqyyyqp7,377733,",
",l777773,lX7X%1%p*qp**y,37777773",
",,lll73,,X%X%1f1yuiiiu9,77777777",
",,3333,,X%11%1111yuu0y%Xl7777777",
",377777X%1f111%%%%%11f1X,llll77,",
"l777777X1111%%ggggg%%11%X,,,,,,,",
"l77777X%%11%tgggggggg%1%X337j73,",
",l7777X111%tgggggggggg%%X77jj773",
",,lll7X%1%ttggggggggggt%o7jcj773",
"33333,X111ootggggggggggto7jcj73,",
"777773X%1ogg&ogggggggggtojccj7,7",
"7777777X%otrgtogga$$aggtojccj,l7",
"7777777X%&ot&gtgd$Ow8agtoccj,l77",
"77777773X&rot&gggsOew$droccj,l77",
"777773,,3o&&ortgggsOOOt&ocj33,l7",
"7777,,3777o&&rrtgggggtroccj773,l",
"lll,3777777o&&rrtttrr&jjjjjj773,",
",,,7777777#::::ooooojjcvvvj77773",
"3,,l77777#:<+66666jjcvvvxj777777",
"3,,l777##:<+4+<6jjcvvvjjj7777777",
",33,ll#:<<6+j;jjcvvvxj 4;+777777",
"37773#:<<6>+j4cvvvjj>@ 444+7777,",
"7777#::<6-25;jvvxj-->> +++lll7,,",
"7777#:<66-hh;j;+z5.5@ 777,,,,,,7",
"7777#<<66=--+;j+k>.>@ 777,,33,,l",
"7777#:<6<#==>+j+@5kz> 777,3773,l",
"77777#:<### >>+7 @@>kk 7,377773l",
"l777ll#:##ll   7, >5kk ,,777777,",
",lll,,,#,,333,,,,3    3,,l77777,"
};
