/* XPM */
static char *gob9[] = {
/* columns rows colors chars-per-pixel */
"32 32 52 1 ",
"  c #030402",
". c #1D2800",
"X c #233B08",
"o c #343B00",
"O c #2E1E22",
"+ c #3A1A3B",
"@ c #252624",
"# c #323234",
"$ c #640A0E",
"% c #3F5A1F",
"& c #525F02",
"* c #764A00",
"= c #534721",
"- c #1B0F41",
"; c #253141",
": c #5C3C5D",
"> c #444444",
", c #474846",
"< c #534F54",
"1 c #545456",
"2 c #5B7C40",
"3 c #465063",
"4 c #5E5A60",
"5 c #7E5E7F",
"6 c #686967",
"7 c #6D6D6E",
"8 c #7F726E",
"9 c #971E2A",
"0 c #C70000",
"q c #FF2627",
"w c #916600",
"e c #CB3044",
"r c #FF4460",
"t c #81850B",
"y c #93AC3E",
"u c #C79D00",
"i c #E3B700",
"p c #FFD600",
"a c #FFFC00",
"s c #8B8244",
"d c #8AA456",
"f c #95A052",
"g c #81A669",
"h c #A1C563",
"j c #6F788D",
"k c #9F7FA0",
"l c #888A86",
"z c #948581",
"x c #AAACA8",
"c c #C09FC1",
"v c #DBBADC",
"b c #F9F7DA",
/* pixels */
"<<448844<488844<<8888884<z88888<",
"<8888884<8888884wz8w88884<zzz8<<",
"88888888<88888X8awwaw8w84<<<<<<<",
"z8888888<z888X%Xuwuuuwa8<488844<",
"<z888884<zX8X%2%a*wa**u<48888884",
"<<zzz84<<X%X%2g2uipppi0<88888888",
"<<4444<<X%22%2222uiiqu%Xz8888888",
"<488888X%2g222%%%%%22g2X<zzzz88<",
"z888888X2222%%hhhhh%%22%X<<<<<<<",
"z88888X%%22%yhhhhhhhh%2%X448884<",
"<z8888X222%yhhhhhhhhhh%%k8888884",
"<<zzz8X%2%yyhhhhhhhhhhykk8888884",
"44444<X222ooyhhhhhhhhhkbk888884<",
"888884X%2ohh&ohhhhhhhhcbk88888<8",
"8888888X%oythyohhs$$skbbkz88z<z8",
"8888888X%&oy&hyhf$Oe9kbvk<zz<z88",
"88888884X&toy&hhhdOrkbbko4<<<z88",
"888884<<4o&&otyhhhdOcbvko4<44<z8",
"8888<<4888o&&ttyhhhkbbko4<4884<z",
"zzz<4888888o&&ttyyykbvkz<4kkkkkk",
"<<<88888888#>>>oookbbk<<kkvvvvk4",
"4<<z888888#>177777cbvk=kvvvvkk88",
"4<<z88888#>177x+++bbkp=vvvkk8888",
"<44<zz88#>177l+kk:bvk@ vkk888888",
"48884<z#>>17,,@+:kk5:+ k<z88888<",
"8888884#>117 @,6+::kk5+84<zzz8<<",
"888888#>>177  ,,jj-+++888<<<<<<8",
"888888#>1177 . ;3;-,@ 888<<44<<z",
"888888#>1177 ,,----@ , 88<4884<z",
"8888884#>177,ll6,  ,,, 8<488884z",
"z888zz<<##176lll <4   <<<888888<",
"<zzz<<<<<<##    <488844<<z88888<"
};
