/* XPM */
static char *item[] = {
/* columns rows colors chars-per-pixel */
"32 32 175 2 ",
"   c #2E2705",
".  c #2E2803",
"X  c #322D01",
"o  c #322C0E",
"O  c #3B3602",
"+  c #3C3708",
"@  c #35341C",
"#  c #383629",
"$  c #413900",
"%  c #423D0C",
"&  c #413C15",
"*  c #423D1C",
"=  c #453F20",
"-  c #454001",
";  c #4A4302",
":  c #46400B",
">  c #4B450D",
",  c #524900",
"<  c #534D08",
"1  c #5C5200",
"2  c #5B540C",
"3  c #4E4817",
"4  c #4E4C1C",
"5  c #544E10",
"6  c #5C5514",
"7  c #595718",
"8  c #635900",
"9  c #685D08",
"0  c #655D14",
"q  c #625B1C",
"w  c #726600",
"e  c #7A6C02",
"r  c #7D730A",
"t  c #6B6213",
"y  c #756B13",
"u  c #726D1C",
"i  c #7B7114",
"p  c #7A7812",
"a  c #7C7219",
"s  c #484321",
"d  c #544E24",
"f  c #54512C",
"g  c #5A5229",
"h  c #494635",
"j  c #5D5838",
"k  c #625C37",
"l  c #676028",
"z  c #6B6434",
"x  c #7C743D",
"c  c #373841",
"v  c #3D3C45",
"b  c #3F3E48",
"n  c #403F46",
"m  c #414047",
"M  c #444C44",
"N  c #45434A",
"B  c #48464C",
"V  c #4C4A4C",
"C  c #524F40",
"Z  c #585346",
"A  c #5F584B",
"S  c #4A4754",
"D  c #4C4D54",
"F  c #4F4D5A",
"G  c #534F54",
"H  c #504F58",
"J  c #555456",
"K  c #555950",
"L  c #525059",
"P  c #595558",
"I  c #5A5A5B",
"U  c #625F4E",
"Y  c #66604A",
"T  c #6D674E",
"R  c #676A4F",
"E  c #706A4B",
"W  c #6B6657",
"Q  c #66625E",
"!  c #726E55",
"~  c #746A5A",
"^  c #7E765B",
"/  c #535160",
"(  c #585562",
")  c #565A60",
"_  c #5E5A60",
"`  c #615D62",
"'  c #676567",
"]  c #696569",
"[  c #6A6A6B",
"{  c #726B6A",
"}  c #7C6D6C",
"|  c #6B726C",
" . c #7A7364",
".. c #757069",
"X. c #7F726E",
"o. c #6F6B78",
"O. c #7A6D70",
"+. c #727575",
"@. c #7C7475",
"#. c #7A7D76",
"$. c #857707",
"%. c #817514",
"&. c #867A15",
"*. c #8A7D15",
"=. c #897E19",
"-. c #837B3F",
";. c #837A46",
":. c #897F47",
">. c #81794E",
",. c #867D5F",
"<. c #806C67",
"1. c #86726E",
"2. c #88736F",
"3. c #87786E",
"4. c #89796E",
"5. c #827572",
"6. c #857A75",
"7. c #8A7C73",
"8. c #86727A",
"9. c #877D7E",
"0. c #8B7E79",
"q. c #9C8D0A",
"w. c #948414",
"e. c #958817",
"r. c #9B8E16",
"t. c #918418",
"y. c #978A19",
"u. c #9A8D1B",
"i. c #9E9017",
"p. c #9F911A",
"a. c #A28E1A",
"s. c #A89917",
"d. c #A3951B",
"f. c #AB961D",
"g. c #AC9D1C",
"h. c #B3A21D",
"j. c #A09224",
"k. c #B7A820",
"l. c #BDAC22",
"z. c #C0AF23",
"x. c #C5B426",
"c. c #C8B522",
"v. c #CDBB23",
"b. c #D8C428",
"n. c #D9C52E",
"m. c #E4D12F",
"M. c #E1CD30",
"N. c #F2DD33",
"B. c #91886F",
"V. c #92926A",
"C. c #8A8373",
"Z. c #8C817E",
"A. c #968E74",
"S. c #7B7F86",
"D. c #8A7E81",
"F. c #8E8381",
"G. c #88878E",
"H. c #918684",
"J. c #958985",
"K. c #9C8D83",
"L. c #918788",
"P. c #968E8E",
"I. c #9E8E8A",
"U. c #9E968A",
"Y. c #9C9393",
"T. c #A08F8A",
"R. c #A4938D",
"E. c #A8968F",
"W. c #A89691",
"Q. c #A89A96",
"!. c #A39C9A",
"~. c #ADA29D",
"^. c #B2A29E",
"/. c #ADA6A8",
"(. c #B3A7A2",
/* pixels */
"B X.X.X.X.X.X.) S 1.1.X.X.X.5.[ ) ~.H.Z.C.@.1.X._ B R.I.I.3.J G ",
"X.X.X.X.X.X.X.3.N @.X.X.X.X.Z.A.R 3.^ ^  .^ Z.X.I L N m N S G G ",
"R.X.X.X.X.X.X.3.m R.X.1.6.~ l p 9 8 8 8 8 u U.I.N _ 3.1.3.) I G ",
"m E.X.X.X.1.2._ N T.X.6./.j *.v.m.n.n.n.h.w.2 W o.X.1.X.1.X.3.) ",
"G N R.I.I.1._ G S W.<.L.A.=.u.g.d.r.t.u.f.a.$.q C.D.X.X.X.X.X.X.",
"G J L F L ) B G G n Q.7.i c.u.q 3 z f 5 a u.s.&.+ @.X.1.X.X.X.X.",
"B ) 3.X.X.X.3.) _ G D ,.$.N.t.s A W ] U 3 a h.s.. 3.Y.R.R.1.6.B ",
"T.X.X.X.X.X.X.X.4.` I ! e M.e ..8.5.1.!.h 7 t.f.X I F B b N S G ",
"I.X.X.X.X.X.X.X.X.I P E w b.t.f ..G { @.@ 6 w.i.. A ' 4.3.3._ G ",
"m W.X.X.X.X.X.X.6.B ( A.y p.i.&.2 f & + 5 t y t O X.#.X.X.X.3._ ",
"G n R.T.R.1.3._ B _ 5.~.V.0 u.k.a.%.i p p y 2 > ! Y.X.X.X.X.4.I ",
"_ _ / H / B S G D 2.@.O.Y.> e.v.c.s.g.g.y.9 O C !.Z.X.X.X.X._ B ",
"1.X.X.X.3.) _ _ B R.X.9.B.j.h.h.&.1 1 1 , 5 ..S.^.<.X.X.X.3.b 3.",
"X.X.X.X.X.X.1.) I R.9.;.w b.h.u 4 # # # h Y Y.H B Q.X.1.E.c E.X.",
"X.X.X.X.X.X.X.3._ I :.d.g.t $ g ' F.Z.H.H.X.1.2.) m E.R.v E.X.X.",
"X.X.X.X.X.X.3./ Q x r.v.z.0 ; d Y ~.Z.5.X.X.X.@.3._ B B N R.X.X.",
"X.X.X.X.5.I G ] ^ q.x.v.g.t.i t 7 Z (.X.X.X.X.X.3.I G _ _ b E.X.",
"X.X.X.3.N S G.;.e v.l.y.=.s.d.y 6 K B E.X.X.X.X._ V _ 3.3.) m R.",
"T.R.W.b [ K.-.k.v.r.t + % t - :  .J.) m R.R.R.R.B _ 1.X.X.1._ N ",
"B N m 1.C.3.$ w.x.u.y % o X j @.P.Z.5.D B B N N ) 1.X.X.X.X.5.I ",
"I G B T.6.6.d ; a d.d.&.2 . ..F.Z.9.0.B _ _ S 3.X.X.X.X.X.X.X.X.",
"` G B R.5.6. .* ; &.u.f.i < k Z.6.7.b ) 3.3.N E.X.X.X.X.X.X.X.X.",
"G ` ` v R.T.9.~   ; r g.h.t.$ Z W.b 3.X.1.X.) n E.X.X.X.X.X.X.X.",
") 3.} 4.G v R.Q.' #.>.a w 8 q K.n 1.1.X.X.X.1.) n E.X.X.X.X.3.B ",
"X.X.X.X.X.1./ N L J.Y.T o = +.] N R.X.X.X.X.1.1.) n E.T.R.3.B D ",
"X.X.X.X.X.X.4.N 1.@.6.D.H.H.Z._ N R.X.X.X.X.X.X.3.D S N B D D 3.",
"X.X.X.X.X.1.1.n R.1.X.X.1.X.X.1.) m E.1.X.X.X.X.1.D J _ _ G V T.",
"X.X.X.X.X.} 7.N R.X.X.X.X.X.X.X.4.D m R.X.X.X.X.6.V _ 4.3.I N I.",
"X.X.X.X.X.X._ L N E.1.X.X.X.X.1.7.J J n E.T.R.4.N _ 1.X.1.1./ R.",
"T.X.X.1.I.W.B J G N R.I.I.I.R.7.B L _ I N N B D D 1.X.X.X.X.3.m ",
"m R.K.R.v N G G G S ( L L m B S G I 3.2.4.` I J B E.X.X.X.X.6.G ",
"M ] | [ [ | I P +.[ [ [ [ | I P | [ [ [ [ [ ` J [ [ [ [ [ [ I V "
};
