/* XPM */
static char *left_3[] = {
/* columns rows colors chars-per-pixel */
"32 32 185 2 ",
"   c black",
".  c #160E00",
"X  c #3A0700",
"o  c #261205",
"O  c #221A00",
"+  c #2C1917",
"@  c #2B2A00",
"#  c #332C02",
"$  c #3A3204",
"%  c #3B3409",
"&  c #363011",
"*  c #2D2721",
"=  c #362524",
"-  c #3B2624",
";  c #342E21",
":  c #3B2826",
">  c #3D2B29",
",  c #3B3521",
"<  c #3A2937",
"1  c #2C3838",
"2  c #590000",
"3  c #650000",
"4  c #6D0000",
"5  c #760000",
"6  c #423503",
"7  c #433B0B",
"8  c #4B3C09",
"9  c #7F2900",
"0  c #422E2C",
"q  c #42312E",
"w  c #493733",
"e  c #25423F",
"r  c #4A450D",
"t  c #7D4F2E",
"y  c #202844",
"u  c #313544",
"i  c #3D3C45",
"p  c #403E45",
"a  c #583F44",
"s  c #3F4B56",
"d  c #33575F",
"f  c #434147",
"g  c #44434A",
"h  c #49464C",
"j  c #5C4346",
"k  c #494754",
"l  c #4A4E54",
"z  c #4D4F5A",
"x  c #534F54",
"c  c #5A4F54",
"v  c #524F5B",
"b  c #585857",
"n  c #644948",
"m  c #654B4A",
"M  c #6E4154",
"N  c #774B55",
"B  c #665654",
"V  c #715654",
"C  c #785654",
"Z  c #775A56",
"A  c #7B5D5C",
"S  c #79605E",
"D  c #534F60",
"F  c #535160",
"G  c #575A60",
"H  c #5E5A61",
"J  c #5E5A6D",
"K  c #665765",
"L  c #61546E",
"P  c #5C6262",
"I  c #5A6665",
"U  c #5E646D",
"Y  c #5D6E75",
"T  c #636669",
"R  c #666A6C",
"E  c #756765",
"W  c #7F726E",
"Q  c #7F786E",
"!  c #6A6E74",
"~  c #767678",
"^  c #7F7279",
"/  c #9B0000",
"(  c #A50000",
")  c #AD0000",
"_  c #B40000",
"`  c #BB0000",
"'  c #802A00",
"]  c #C30000",
"[  c #FF040D",
"{  c #FF151A",
"}  c #FF1E20",
"|  c #FF2627",
" . c #FF2D2F",
".. c #FF3335",
"X. c #A75228",
"o. c #9D703D",
"O. c #925E4A",
"+. c #8B5E5F",
"@. c #935E58",
"#. c #A85E4A",
"$. c #9D704C",
"%. c #A77E5D",
"&. c #B37E59",
"*. c #856D69",
"=. c #86726E",
"-. c #87786E",
";. c #88796E",
":. c #836D72",
">. c #8F7772",
",. c #867A75",
"<. c #8A7B74",
"1. c #86797B",
"2. c #8B7D7A",
"3. c #957F79",
"4. c #987F79",
"5. c #7F807C",
"6. c #DAA900",
"7. c #ECB700",
"8. c #FFF700",
"9. c #FFFE00",
"0. c #B3875D",
"q. c #85827C",
"w. c #8E827C",
"e. c #94827C",
"r. c #9B837D",
"t. c #BA8B69",
"y. c #D78766",
"u. c #E3906E",
"i. c #EA926E",
"p. c #F09576",
"a. c #003B9F",
"s. c #005BB8",
"d. c #096EBB",
"f. c #524E80",
"g. c #6E768A",
"h. c #877B80",
"j. c #7C8987",
"k. c #0089DA",
"l. c #1397E6",
"z. c #0E9CF2",
"x. c #828680",
"c. c #8E8983",
"v. c #8D8886",
"b. c #9A8881",
"n. c #9F8E89",
"m. c #918F93",
"M. c #A48B85",
"N. c #A18E88",
"B. c #A5938C",
"V. c #A9948E",
"C. c #A89690",
"Z. c #A99994",
"A. c #A1A09A",
"S. c #8590AA",
"D. c #B7B7BB",
"F. c #F7BE93",
"G. c #C6B0A8",
"H. c #CFB3AA",
"J. c #CAB4AC",
"K. c #CFB8B0",
"L. c #FAC99C",
"P. c #FFD09E",
"I. c #DAC3BA",
"U. c #FFCDA2",
"Y. c #FFD2A3",
"T. c #FFDBA7",
"R. c #FFE3A8",
"E. c #FFE2AF",
"W. c #FFECB5",
"Q. c #FFF2BA",
"!. c #B89DC9",
"~. c #BEBEC3",
"^. c #C7C8CD",
"/. c #D7D7DC",
"(. c #E5D9DD",
"). c #FFFCC6",
"_. c #FFFFCC",
"`. c #FEE4DD",
"'. c #FFFFD4",
"]. c #FFFFD9",
"[. c #C2CAEC",
"{. c #E6E5EA",
"}. c #E8EAF8",
"|. c #F4F7FA",
" X c #FFFFFF",
/* pixels */
"k <.W W W W =.H k w.- q > q e.K x > > > > 2.,.2.H g C.n.B.-.k x ",
"-.W W W W W W w.l e.e.> V.V : q > V B.Z > > > 0 w q g f g k x x ",
"C.W W W W W Q - w q : > - r.r.m 4.r.m + I.4.M.A w T >.=.<.b H g ",
"f C.W W W =.;.U w A r.I.n n >.>.J.j ;.I.>.j V > q 0 2.W W Q ;.v ",
"l g B.n.n.=.H 0 q > m >.K.>.;.H.*.>.>.>.>.>.<.r.N.C = W W W W W ",
"x x F v v H > V r.4.>.>.>.>.>.;.>.>.,.1.G.*.>.m = > w.W W W W =.",
"h b -.W w.0 C M.n >.J.>.e.>.G.+.>.>.>.t >.K.>.3.r.V = Z.B.W <.g ",
"Z.W W W : q q = r.G.*.c.3 e.D.G.j >.G.>.c 3.m B c.b.V : l h k h ",
"B.W W W 1.c.> M.n J.>.P ` P ,.J.c ;.G.q._ I n.3 ` 1 V.O.: 2.H h ",
"g C.W W *.: C V > 3.c.2  .( c.q._ c.<.q.| ) Y _ ..4 e > 2.W <.v ",
"x f B.n.Z.> S w r m c.( { [ f 5.[ b r.b } ) 4 3 ) 3 E > 2.=.-.v ",
"H H F z D x 0 v % W.< T.].].].< '.j V V b v.B I  .) Y Z : 2.G g ",
"W W W W -.G H J % Y.F._.. # . ).Q.:.m j a >.4.b |  .) E > w.i <.",
"W W W W W W >.b % U.E.W. X   XE.Q.E W T._.E >.x.} | | e w s C.=.",
"W W W W W W W 2.# Y.E.E.m.   XT.Q.S Y.t _.:.>.x./ |  .` 1 Z.W W ",
"W W W W W W ;.J % i.).).X X  XR.Q.K _.t E.j >.c.) ../ ) 3 A.W W ",
"W W W W ,.H h l 6 $.L._.' 9 ).E.W.K P.i.@ V r.B I ) ) ) ] d Z.W ",
"W W W <.g h H <.h.@ p.U.'.'.E.T.W.L.y.p.B V V V E ` ) _ ` 5 s B.",
"B.B.B.p b <.W W :.1.# $.i.u.Y.U.Y.u.i.o.V : A > A 1 ] 3 4 5 U f ",
"h g g =.W W W W W W 1.$ @ @ O O O O Y ! + j.- x : v.3 5 5 5 w.x ",
"b x h B.W W W W W W ^ g.[.}.}. X X X}.~.^.^.R :.,.W v.5 5 j.=.Q ",
"K x h C.W W W W W 1.& 7.7. X X X(.{.{.~.v.|.|.b R W Q ~ 5.Q W W ",
"h b H s B.N.W W Z.p z * 8.a. X`.k.o /.m.T H {. XD.T W W W W W W ",
"b -.W *.z i B.C.p G 2.y 9.s.k.k.l.d.6 i H.R ~./. XD.T W W Q ;.i ",
"<.=.W W W =.F g G =.,.1 S.X.X.X.X.X.#.% 0.&.U D. X/.~.R B.;.h h ",
"W Q W W W W ;.g =.W ,.u i d.z.z.z.z.d.6 O.0.0.b  X X(.T i l l =.",
"W W W W W W =.g B.Q 1.& 9.f.L L L L U g.& @.O.R {. X X~.~ c h B.",
"W W W W W W -.g B.Q h.@ !.9.9.9.8.9.9.6.7., 8 ~ D. X X~.~ b g b.",
"W W W W W =.H x g Z.% t.%.M N M ; > ; *.@.7 m.~ b  XD.T =.=.F B.",
"B.W W Q n.B.h x x l 7 y.t.t.Z r F D 8 7 7 v g g.!  XP W W W =.i ",
"g B.n.B.s g x x x x J 6 7 7 8 D x H 2.1.2.G b h f ! W W W W =.h ",
"x g v l *.;.H H x H >.2.h.J U x x *.W ,.,.2.e.K h C.W W W W <.l "
};
