/* XPM */
static char *right_3[] = {
/* columns rows colors chars-per-pixel */
"32 32 193 2 ",
"   c black",
".  c #080B0D",
"X  c #160E00",
"o  c #3A0700",
"O  c #221A00",
"+  c #2E1D00",
"@  c #2E1C19",
"#  c #292800",
"$  c #332D01",
"%  c #3B3305",
"&  c #393307",
"*  c #363113",
"=  c #393314",
"-  c #1C3B39",
";  c #362524",
":  c #3A2625",
">  c #322C21",
",  c #3B2826",
"<  c #3C2B2A",
"1  c #3A2937",
"2  c #2A3737",
"3  c #383B3C",
"4  c #4B0000",
"5  c #550000",
"6  c #5C0000",
"7  c #650000",
"8  c #6E0000",
"9  c #463500",
"0  c #413807",
"q  c #433C0C",
"w  c #493D0B",
"e  c #463B10",
"r  c #7F2900",
"t  c #412F2D",
"y  c #42312E",
"u  c #433231",
"i  c #4D3732",
"p  c #4A470E",
"a  c #7D4F2E",
"s  c #202844",
"d  c #353842",
"f  c #3C3C45",
"g  c #403F46",
"h  c #583F44",
"j  c #3D4F54",
"k  c #3F456D",
"l  c #424147",
"z  c #45434A",
"x  c #49464C",
"c  c #5D4242",
"v  c #5C4449",
"b  c #454454",
"n  c #494754",
"m  c #4B4E54",
"M  c #4F4F59",
"N  c #534F54",
"B  c #5A4F54",
"V  c #524F5B",
"C  c #545654",
"Z  c #595658",
"A  c #624746",
"S  c #664A49",
"D  c #654B4A",
"F  c #74504F",
"G  c #665654",
"H  c #715654",
"J  c #795654",
"K  c #745A57",
"L  c #7A5D5B",
"P  c #525160",
"I  c #565A60",
"U  c #5E5A60",
"Y  c #5E5A6D",
"T  c #4A5276",
"R  c #695660",
"E  c #715C63",
"W  c #5B6465",
"Q  c #5D6D75",
"!  c #636666",
"~  c #656769",
"^  c #6C6C6E",
"/  c #746767",
"(  c #7F726E",
")  c #676D75",
"_  c #767175",
"`  c #767678",
"'  c #7B7B7A",
"]  c #9E0000",
"[  c #A50000",
"{  c #AD0000",
"}  c #B40000",
"|  c #BA0000",
" . c #802A00",
".. c #FF040D",
"X. c #FF151A",
"o. c #FF1E20",
"O. c #FF2627",
"+. c #FF2D2F",
"@. c #FF3435",
"#. c #AA5E37",
"$. c #9D703D",
"%. c #915E4A",
"&. c #85585B",
"*. c #945E53",
"=. c #9A5E54",
"-. c #9F6A4F",
";. c #A77E59",
":. c #856D69",
">. c #86726E",
",. c #87786E",
"<. c #88796E",
"1. c #836D72",
"2. c #8F7772",
"3. c #867A75",
"4. c #8B7B75",
"5. c #857578",
"6. c #8A7E79",
"7. c #977E79",
"8. c #987F79",
"9. c #7F817C",
"0. c #E0AD00",
"q. c #E8B300",
"w. c #FFE300",
"e. c #FFFD00",
"r. c #B4875D",
"t. c #85827C",
"y. c #8E827C",
"u. c #93807C",
"i. c #9B837D",
"p. c #BA8A68",
"a. c #CD8965",
"s. c #E3906E",
"d. c #EA926E",
"f. c #EF9576",
"g. c #003B9F",
"h. c #0058B1",
"j. c #6D7692",
"k. c #897C80",
"l. c #778B87",
"z. c #008DF4",
"x. c #828680",
"c. c #8E8983",
"v. c #8C8985",
"b. c #918682",
"n. c #9E8A84",
"m. c #948F91",
"M. c #A48B85",
"N. c #A08F8A",
"B. c #A5938D",
"V. c #A9958E",
"C. c #A89690",
"Z. c #A99897",
"A. c #AA9A96",
"S. c #B29794",
"D. c #9CA29D",
"F. c #8591AA",
"G. c #BC9FA6",
"H. c #94ADA6",
"J. c #B2A0A2",
"K. c #AFAFB3",
"L. c #B7B7BB",
"P. c #F7BE93",
"I. c #C9ADA4",
"U. c #C6B0A8",
"Y. c #CAB4AC",
"T. c #CFB8B0",
"R. c #D2B7B0",
"E. c #FAC99C",
"W. c #FFD09E",
"Q. c #DAC3BA",
"!. c #FFCDA2",
"~. c #FFD2A3",
"^. c #FFDBA7",
"/. c #FFE3A8",
"(. c #FFE2AF",
"). c #FFECB5",
"_. c #FFECB8",
"`. c #FFF2BA",
"'. c #BFBFC3",
"]. c #C6C7CB",
"[. c #CACAD0",
"{. c #D0D0D5",
"}. c #D9D9DD",
"|. c #FFFCC6",
" X c #FFFFCC",
".X c #FFFFD4",
"XX c #FFFFD9",
"oX c #CED2E8",
"OX c #E1E1E6",
"+X c #E6E6EB",
"@X c #E8EAF8",
"#X c #F3F5FB",
"$X c white",
/* pixels */
"n 4.( ( ( ( ,.U C 7.3.6.< u t y m A.6., , y , 7.U l C.n.B.3.n N ",
",.( ( ( ( ( ,., i t < , < J M.H , t : H V.t b.6.U N z l z n N m ",
"C.( ( ( ( ( ( b.u L i.i.Q.@ D i.8.D i.n.; , , t i , 6.>.<.I U z ",
"l C.( ( ( ( 6., y , H S 2.R.4.c T.2.2.A S Q.i.L y b.( ( ( ( <.I ",
"m l V.n.N.,., J M.i.4.2.2.2.2.2.:.Y.2.2.T.2.S < < < 6.>.( ( ( <.",
"N C P M M I C y > S 2.:.Y.2.2.2.2.2.2.2.2.2.2.i.n.H ; 6.( ( ( 4.",
"x I ,.( ( y., H i.i.2.Y.2.A 2.2.2.:.U.2.y.2.Y.2.A M.J , A.( 4.z ",
"C.( ( ( 6.; H n.c.G S u.Z 2.U.2.c U.U.y.7 b.:.U.i.; u u , n n x ",
"C.( ( ( ; J B.2 | 7 B.W } t.U.2.C Y.,.W | W 2.Y.A M.< b.3.<.Z x ",
"l C.( ( t.< 3 8 @.| Q [ O.x.2.c.} t.b.[ +.6 b.7.< H J , 3.( 3.U ",
"N j B.n.A.< / 7 { 6 8 { X.C n.C ..x.z ..X.[ v.B p 1 L , 3.( <.Z ",
"Z U P I , E W { +.W G m.B H H h .X1 XXXXXX^.1 (.& v.; 4.( >.I x ",
"1.( ( 6.t / { +.o.C 7.2.h v S 1.`.|.X $ X |.P.!.$ ` ( ( ( ,.j :.",
"( ( ( 3.< - O.O.O.t.2.:.|.^.1./ _.(.$X  $X(._.!.$ Z.( ( C.d V.>.",
"( ( ( 3.2 O.O.+.] x.y.1.|.a ~./ _./.$X  m._.).!.% b V.V.d V.( ( ",
"( ( ( 9.5 +.O.+.{ c.<.c (.a |.R `./.$Xo o |.`.d.& Y x x x B.( ( ",
"( ( ( l.O.O.+.] W G i.H # d.W.R ).(.`.r  . XE.-.q Y C R I g C.( ",
"( ( ' 6 +.O.O.} ! H H H G f.a.E._./._..X.XE.f.$ Y N Z 3.,.I g C.",
"V.N.D.| 5 4 +.- L , L y K $.d.s.!.!.!.s.d.-.$ J.z U >.( ( >.I g ",
"z z j | } | 6 v.> b., m @ ) Q O O O O # $ 0 V z Z ,.( ( ( :.5.I ",
"U N m H.} } l.( >.( >.^ ].@X+X$X$X$X+X@XoXj.n 3.( ( ( ( ( ( ( ,.",
"U C x C.` ' >.( ( ( W '.+XK.+XK.+X$X$X$Xq.0.& Z.( ( ( ( ( ( ( ( ",
"x U U f B.B.( ( ` ~ ].OXOXm.].! . #X$Xg.e.; Y f V.( ( ( ( ( ( <.",
"U ,.( ,.N d B.` ^ ].L.}.$X> 3 I.R.+ z.h.e.s k.I j V.( ( ( ( <.z ",
",.( ( ( ( ( ` ` ! '.L.}.$XI S.;.;.p.9 #.F.2 3.>.Z g V.B.B.<.x x ",
"( ( ( ( ( ( ` ^ ].].L.}.$X+ F r.;.p.w h.M d 5.( ,.m n z z m m ,.",
"( ( ( ( ( ( ` ^ {.Z L.}.$XT * J %.*.* k q.e k.>.:.m N U U N x B.",
"( ( ( ( ( ( ,.` ` ^ L.}.$Xw.0.* & < e.0.&.=.0 3.4.x U <.3.Z z N.",
"( ( ( ( ( ( I z l.^ [.L.oX$X-.Z.G.e = :.*.=.q 6.z U >.( >.,.P B.",
"C.( ( ( B.V.x N x 5._ ~ '.#XQ a.0 N R 0 e w V C m >.( ( ( ( ,.f ",
"l C.n.C.f l N N N x I m ` ` 9 p V U 3.5.6.I U N x B.( ( ( ( >.n ",
"C l P M ,.,.U U N U ,.( 4.U Y V N >.( 5.3.6.6.U z V.( ( ( ( 4.N "
};
