/* XPM */
static char *trap8[] = {
/* columns rows colors chars-per-pixel */
"32 32 18 1 ",
"  c #0E071B",
". c #391F21",
"X c #5D2C28",
"o c #333941",
"O c #534F54",
"+ c #5E5A60",
"@ c #7F726E",
"# c #8A4836",
"$ c #BF6F4A",
"% c #E69C69",
"& c #6D758D",
"* c #948581",
"= c gray62",
"- c #8B93AF",
"; c gray74",
": c #B3B9D1",
"> c #DAE0EA",
", c white",
/* pixels */
"OO++@@++O+@@@+    @@@@@+O*@@@@@O",
"O@@@@@@+O@@@@ ;;, @@@@@@+O***@OO",
"@@@@@@@@O@@@ =;, *@@@@@@+OOOOOOO",
"*@@@@@@@O*@@ ;;, O*@@@@@    @++O",
"O*@  @@+O*@ =;;, OO***  ;;, @@@+",
"OO* , +OO*@ =      ++ =;;, @@@@@",
"OO+ ;,  OO*  ---o&&  =;;, @@@@@@",
"O+@ ;;,,   -----o&&&&  ;, ***@@O",
"*@@@ ;;; -------o&&&&&o  OOOOOOO",
"*@@@ =; oo------o&&&&&o> ++@@@+O",
"O*@@@ = ::o----o&&&&&o>> @@@@@@+",
"OO***@ ::::o--::--&oo>>>>   @@@+",
"+++++O ::::o-:    ->>>>>> ==  +O",
"@@@@@ ::::::> ###X ,>>>>>> ;=; @",
"  @@@ :::::> X..#.$ ,>>>>> ;;;; ",
" ,    oooo:> $$...$ ,o>>>> ,,,; ",
" ;,,, >>>>o, $...$$ >:oooo    , ",
" ;;;; >>>>>, $.%..X >::::: ++O  ",
"@ =;; >>>>>>, X%%% >:::::: @@+O*",
"**  == >>>>>>-    :-o:::: @@@@+O",
"OOO@   >>>>oo&--::--o:::: @@@@@+",
"+OO*@@@ >>o&&&&&o----o:: = @@@@@",
"+OO*@@@ >o&&&&&o------oo ;= @@@@",
"O++O**@  o&&&&&o------- ;;; @@@@",
"+@@@+O ,;  &&&&o-----   ,,;; @@O",
"@@@@@@ ,;;=  &&o---  @@@  ,; @OO",
"@@@@@ ,;;= @@      = @@@@O , OO@",
"@@@@ ,;;  @@@@@ ,;;= @@@@OO  OO*",
"@@@@    *@@@@@@ ,;; @@@@@O+@@+O*",
"@@@@@@+OO*@@@@@ ,;= ***@O+@@@@+*",
"*@@@**OOOO**** ,;; +OOOOO@@@@@@O",
"O***OOOOOO+++O    @@@++OO*@@@@@O"
};
