/* XPM */
static char *trap3[] = {
/* columns rows colors chars-per-pixel */
"32 32 18 1 ",
"  c #0E071B",
". c #391F21",
"X c #5D2C28",
"o c #333941",
"O c #534F54",
"+ c #5E5A60",
"@ c #7F726E",
"# c #8A4836",
"$ c #BF6F4A",
"% c #E69C69",
"& c #6D758D",
"* c #948581",
"= c gray62",
"- c #8B93AF",
"; c gray74",
": c #B3B9D1",
"> c #DAE0EA",
", c white",
/* pixels */
"OO++@@++O+@@@++OO@@@@@@+O*@@@@@O",
"O@@@@@@+  @@@@@+O*@    @+O***@OO",
"@@@@@@@ , @@@@@@O  ;;, @+OOOOOOO",
"*@@@@@ ;, @@@@@@ =;;, @@O+@@@++O",
"O*@@@@ ;;, @@@@ =;;, *@O+@@@@@@+",
"OO***@ =;;, @      , OOO@@@@@@@@",
"OO++++ =;;*  &&&o>>  @+O*    @@@",
"O+@@@@@ =  &&&&&o>>>>  + ==;; @O",
"*@@@@@@@ &&&&&&&o>>>>>o =;;;,, O",
"*  @@@@ oo&&&&&&o>>>>>o: ;;,   O",
"O , @@@ --o&&&&o>>>>>o:: ,, @@@+",
"O ;,   ----o&&--,,>oo::::  @@@@+",
"+ ;;,, ----o&-    ,:::::: @@@@+O",
"@@ ;; ------: ##XX >:::::: @@@O@",
"@@ =; -----: X.##.$ >::::: @*O*@",
"@@@ = oooo-: X$..$$ >o::::  O*@@",
"@@@@  ::::o> $$..$$ :-oooo = *@@",
"@@@@@ :::::> $.%%.X :----- ;= *@",
"@@@@O ::::::> XX%% :------ ;; O*",
"***O+@ ::::::,    -&o---- ,,;; O",
"OOO@@  ::::oo>,,--&&o----   ,; +",
"+OO* ,, ::o>>>>>o&&&&o-- @@@ , @",
"+   ,;; :o>>>>>o&&&&&&oo @@@@  @",
"O ,,;;;= o>>>>>o&&&&&&& *@@@@@@@",
"+@ ;;== O  >>>>o&&&&&  = *@@@@@O",
"@@@    O+@@  >>o&&&  ,;;= ***@OO",
"@@@@@@@O@@@ ,      @ ,;;= OOOOO@",
"@@@@@@@O*@@ ,;;= O*@@ ,;; O++OO*",
"@@@@@@@O*@ ,;;= @OO*@@ ,; +@@+O*",
"@@@@@@+OO ,;;  @@OOO** , +@@@@+*",
"*@@@**OOO    **@OO++OO  O@@@@@@O",
"O***OOOOOO+++OOOO+@@@++OO*@@@@@O"
};
