/* XPM */
static char *trap5[] = {
/* columns rows colors chars-per-pixel */
"32 32 18 1 ",
"  c #0E071B",
". c #391F21",
"X c #5D2C28",
"o c #333941",
"O c #534F54",
"+ c #5E5A60",
"@ c #7F726E",
"# c #8A4836",
"$ c #BF6F4A",
"% c #E69C69",
"& c #6D758D",
"* c #948581",
"= c gray62",
"- c #8B93AF",
"; c gray74",
": c #B3B9D1",
"> c #DAE0EA",
", c white",
/* pixels */
"OO++@@++O+  @++OO@@@@@@+O*@@@@@O",
"O@@@@@@+O , @@@+O*@@@@    ***@OO",
"@@@@@@@@ ;, @@@@O*@@  ;;, OOOOOO",
"*@@@@@@@ ;;, @@@+O* =;;, +@@@++O",
"O*@@@@@+ =;;, @@+O =;;, +@@@@@@+",
"OO***@+O =;;,      =;;, @@@@@@@@",
"O  +++OOO =  :::o--  ; O*@@@@@@@",
"O , @@@++  :::::o----  +O****@@O",
"* ;,  @@ :::::::o-----o OO    OO",
"* ;;,,  oo::::::o-----o&  ==;; O",
"O* ;;;; >>o::::o-----o&& =;;;,, ",
"OO =;; >>>>o::>>::-oo&&&& ;;,   ",
"+++ == >>>>o:>    :&&&&&& ,, @+O",
"@@@@  >>>>>>, #X$$ -&&&&&&  @@O@",
"@@@@@ >>>>>, ##.$$$ -&&&&& @*O*@",
"@@@@@ oooo>, ##...X -o&&&& *O*@@",
"@@@@@ &&&&o- X...%% ,>oooo OO*@@",
"@@@@@ &&&&&- $$$.%% ,>>>>> ++O*@",
"@@@@  &&&&&&- $$X% ,>>>>>>  @+O*",
"*** ,, &&&&&&:    >:o>>>> == @+O",
"   ,;; &&&&oo-::>>::o>>>> ;;= @+",
" ,,;;;= &&o-----o::::o>> ;;;; @@",
"+ ;;==  &o-----o::::::oo  ,,;; @",
"O+    @@ o-----o::::::: *@  ,; @",
"+@@@+O**O  ----o:::::  +O*@@ , O",
"@@@@@@+O+ ;  --o:::  = @+O***  O",
"@@@@@@@O ,;@@      ,;;= @OOOOOO@",
"@@@@@@@O ,;;= @@+O ,;;= @OO++OO*",
"@@@@@@@ ,;== @@@@OO ,;; @O+@@+O*",
"@@@@@@ ,;;  @@@@@OOO ,; O+@@@@+*",
"*@@@**    *****@OO++ , OO@@@@@@O",
"O***OOOOOO+++OOOO+@@  +OO*@@@@@O"
};
