/* XPM */
static char *up_2[] = {
/* columns rows colors chars-per-pixel */
"32 32 167 2 ",
"   c #210905",
".  c #341F1C",
"X  c #3B2C00",
"o  c #3E3705",
"O  c #32201E",
"+  c #1A1E26",
"@  c #1F2B28",
"#  c #07312D",
"$  c #352423",
"%  c #382524",
"&  c #3B2826",
"*  c #3D2C2B",
"=  c #3F302E",
"-  c #2E3131",
";  c #353737",
":  c #3A353A",
">  c #4D0000",
",  c #530000",
"<  c #5B0000",
"1  c #650000",
"2  c #6A0000",
"3  c #760000",
"4  c #423200",
"5  c #413905",
"6  c #453D0F",
"7  c #422E2C",
"8  c #43312E",
"9  c #4D312E",
"0  c #443331",
"q  c #4B3833",
"w  c #4D3B39",
"e  c #583D3D",
"r  c #3B3740",
"t  c #3C3B44",
"y  c #413F46",
"u  c #394444",
"i  c #434046",
"p  c #45444B",
"a  c #49464C",
"s  c #5E4343",
"d  c #494754",
"f  c #4B4C53",
"g  c #534F54",
"h  c #534F5D",
"j  c #565157",
"k  c #5E5654",
"l  c #59595A",
"z  c #614645",
"x  c #664B4A",
"c  c #665654",
"v  c #685654",
"b  c #715654",
"n  c #785654",
"m  c #705D5C",
"M  c #7A5D5B",
"N  c #66615F",
"B  c #70615F",
"V  c #7F615F",
"C  c #525160",
"Z  c #575A60",
"A  c #5E5A60",
"S  c #476764",
"D  c #4C6F6C",
"F  c #5F6061",
"G  c #5E626C",
"H  c #5F6E6B",
"J  c #557774",
"K  c #646363",
"L  c #686562",
"P  c #64676A",
"I  c #67686F",
"U  c #706462",
"Y  c #706A68",
"T  c #69726F",
"R  c #7F726E",
"E  c #7F786E",
"W  c #6B6E71",
"Q  c #696F78",
"!  c #6B7672",
"~  c #677678",
"^  c #6C7678",
"/  c #7F7276",
"(  c #767678",
")  c #A20000",
"_  c #AD0000",
"`  c #B30000",
"'  c #B90000",
"]  c #C20000",
"[  c #FF0102",
"{  c #FF0C0D",
"}  c #FF1212",
"|  c #FF1F24",
" . c #FF2627",
".. c #FF2C2D",
"X. c #FF3436",
"o. c #FF393B",
"O. c #975E41",
"+. c #965E4A",
"@. c #9A5E4A",
"#. c #866E69",
"$. c #87726E",
"%. c #87786E",
"&. c #89796E",
"*. c #8F7772",
"=. c #867A76",
"-. c #8A7B75",
";. c #8A7E79",
":. c #967E79",
">. c #8F827C",
",. c #96817B",
"<. c #9B837D",
"1. c #7E7E80",
"2. c #897D80",
"3. c #7C8184",
"4. c #8C8A83",
"5. c #86838C",
"6. c #928782",
"7. c #9E8680",
"8. c #9D8B81",
"9. c #9B8C87",
"0. c #9A918A",
"q. c #8A8696",
"w. c #868994",
"e. c #8D8A94",
"r. c #918E98",
"t. c #9A9D9B",
"y. c #A48C85",
"u. c #A88F88",
"i. c #A4938D",
"p. c #A9958E",
"a. c #A89690",
"s. c #AC9A98",
"d. c #B89C96",
"f. c #9FA19E",
"g. c #9290A0",
"h. c #A1A3A7",
"j. c #A7A7AB",
"k. c #BFA8A0",
"l. c #ADADB1",
"z. c #B7B7BB",
"x. c #C2ABA4",
"c. c #C6B0A8",
"v. c #CBB5AD",
"b. c #CFB8AF",
"n. c #D2BCB3",
"m. c #D9C2B9",
"M. c #B7B7C1",
"N. c #B7BEC5",
"B. c #ABC8CD",
"V. c #AACCD1",
"C. c #A8EDF2",
"Z. c #C2C3C7",
"A. c #C4C5C9",
"S. c #C7C8D3",
"D. c #CECED3",
"F. c #D5D5DA",
"G. c #D3D8DE",
"H. c #D9D9DD",
"J. c #DFDFE3",
"K. c #C4E9EF",
"L. c #DFE5E9",
"P. c #CCFFFF",
"I. c #D9F8FC",
"U. c #E3E3E7",
"Y. c #EBEBEF",
"T. c #F1F1F5",
"R. c white",
/* pixels */
"d -.R R R R =.& w q 7 * * n <.m.O * $ b u.= 6.,.l p p.0.i.-.d j ",
"%.R R R R R =.6.q 0 b <.<.$ x *.m.z m.:.b 8 * * q 8 p i i d j f ",
"p.R R R R ;.& * 7 b <.*.v.*.:.s *.*.*.z $ b y.M q G -.$.%.l l a ",
"i a.R R R % n y.<.<.O x *.v.*.*.*.*.*.v.b.*.z & 8 7 ;.R R R =.l ",
"f i p.9.i.>.* $ x :.:.*.*.$.*.*.z x *.*.#.v.*.,.8.n & ;.R R R %.",
"j j C C A & b 7.,.s *.*.#.c.*.*.*.*.s *.*.*.*.*.x * V * >.R R =.",
"a Z %.>.& b 7.:.e n.*.*.x.x.*.*.c.$.*.v.#.*.*.v.*.b 8 w * ;.-.a ",
"a.R E % n u.$ x n.*.z *.c.#.*.*.k.v.s *.c.*.*.*.v.:.* h g a d a ",
"a./ R ;.& = b b *.:.x *.*.*.x *.c.*.x *.v.s ,.s *.*.b 7 -.&.A a ",
"u a.R R >.% 8.x 8.v b *.,.v N k *.*.c ,.*.z *.,.c <.<.$ ;.$.%.A ",
"j i i.a.% y.b b L 3 m 7.K 2 ' _ >.9.3 L 8.c ,.6.3 m b p.$ =.%.A ",
"Z A C l 8 M = B 3 3 Y m 2 ' ,  .4.F 3 3 T 3 N 0.3 L 8 7 7 ;.Z a ",
"R R R ;.8 8 w v Y 3 3 ~ ` o.>  .D ] 1 ] 2 3 3 B B b 8 6.% >.t &.",
"R R R =.% 6.7 b b U Y 3 ' ) _ , ' < _ _ ' 3 Y b b b = E s.r p.R ",
"R R R R R =.7 b M 0 b B H _ X._ J _ o._ H B b = M b = s.t p.R R ",
"R R R R R ;.* V 0 w b b K _ .. .S  ..._ N b b q 8 V 8 f p p.R R ",
"R R R R -.l g 9 u 7 n n L )  .| S |  .) L b n 7 u 9 g A A u a.$.",
"R R R =.a d A - ( 1.. n @  . .| #  . . .@ n . 3.( - c %.=.l t a.",
"p.i.a.t l ;.; l.F.F F.  K.}  .} C.}  .} K.  G.F F.l.; %.R $.Z u ",
"a a i $.$.-.: ( P Z.Y.B.V.{  .{ P.{  .[ B.N.Y.Z.P ( ; -.R R *.Z ",
"l g a i.R =.+ ; ( z.U.l.I.[  .[ R.[ { P.L.l.U.z.( ; + =.R R R $.",
"A g a p.R 2.5 d.K z.H.j.H.R.[ [ R.[ [ R.H.j.H.z.F d.5 ;.R R R / ",
"a l A t s.o @.~ Z.H.R.D.R.R.R.R.R.R.R.R.R.D.R.H.Z.~ @.o / R R &.",
"A %.R =.C 6 +.Q z.H.R.R.R.R.R.R.R.R.R.R.R.R.R.H.z.Q +.6 / R %.a ",
"&.R R R =.o O.G z.R.R.D.R.R.R.R.R.R.R.R.R.D.R.R.z.P O.5 s.-.a p ",
"R R R R $./ ~ A.H.R.H.h.R.R.R.R.R.R.R.R.R.h.H.R.J.A.( d d f f &.",
"R R R R R R W z.H.R.H.l.H.R.R.R.R.R.R.R.H.l.H.R.F.z.! Z A g a i.",
"R R R R R R ^ A.Y.J.l.z.H.R.R.R.R.R.R.R.H.z.l.J.Y.Z.Q R =.A i i.",
"R R R R R R j ( L Z.A.l T.H.R.R.R.R.R.H.T.l A.A.K W R R R $.h i.",
"i.R R R i.p.a g a ( ( ( I S.N.M.z.z.N.S.I ( ( ( y R R R R R %.t ",
"r 8.7.i.: y a a a i j l 4 X X r : d X 4 4 h g y y i.R R R R R i ",
"e.5.w.d f.q.e.e.e.r.r.h h.q.r.e.e.q.g.C h.q.e.e.w.5.w.f t.5.5.e."
};
