/* XPM */
static char *up_3[] = {
/* columns rows colors chars-per-pixel */
"32 32 170 2 ",
"   c #111A16",
".  c #210905",
"X  c #311E1C",
"o  c #09221E",
"O  c #3B2D00",
"+  c #393200",
"@  c #2F201E",
"#  c #173330",
"$  c #342423",
"%  c #392624",
"&  c #3B2826",
"*  c #3D2C2B",
"=  c #3F302E",
"-  c #2D2F30",
";  c #2D3235",
":  c #333639",
">  c #4D0000",
",  c #530000",
"<  c #5B0000",
"1  c #650000",
"2  c #6A0000",
"3  c #760000",
"4  c #433907",
"5  c #533F0A",
"6  c #5C321E",
"7  c #412E2C",
"8  c #43312F",
"9  c #4D302C",
"0  c #443230",
"q  c #4A3634",
"w  c #4D3B39",
"e  c #583D3D",
"r  c #3D3C44",
"t  c #413E45",
"y  c #394444",
"u  c #434046",
"i  c #45434A",
"p  c #49464C",
"a  c #5E4343",
"s  c #454454",
"d  c #494754",
"f  c #4C4C53",
"g  c #534E54",
"h  c #504F58",
"j  c #5E5654",
"k  c #5C5D5E",
"l  c #614645",
"z  c #664B4A",
"x  c #665654",
"c  c #715654",
"v  c #785654",
"b  c #705D5C",
"n  c #7A5D5B",
"m  c #5B615E",
"M  c #66615F",
"N  c #78615F",
"B  c #535160",
"V  c #565B61",
"C  c #5E5A60",
"Z  c #5E5A68",
"A  c #4C6360",
"S  c #4C6F6C",
"D  c #5B6667",
"F  c #587673",
"G  c #646363",
"H  c #646669",
"J  c #676869",
"K  c #6B6C6D",
"L  c #706462",
"P  c #786B66",
"I  c #706A68",
"U  c #69726F",
"Y  c #7F726E",
"T  c #7F786E",
"R  c #666B75",
"E  c #696D78",
"W  c #667572",
"Q  c #767671",
"!  c #7F7277",
"~  c #767679",
"^  c #8B0000",
"/  c #A30000",
"(  c #AD0000",
")  c #B40000",
"_  c #B90000",
"`  c #C20000",
"'  c #FF0101",
"]  c #FF0C0C",
"[  c #FF1112",
"{  c #FF1C1D",
"}  c #FF2627",
"|  c #FF2C2E",
" . c #FF3335",
".. c #FF393B",
"X. c #9A5E4A",
"o. c #A35E4A",
"O. c #AB7949",
"+. c #B57E4C",
"@. c #866E69",
"#. c #87726E",
"$. c #87786E",
"%. c #88796E",
"&. c #8F7772",
"*. c #867A75",
"=. c #8C7C75",
"-. c #86797C",
";. c #8A7D7A",
":. c #967E79",
">. c #8E817B",
",. c #95817B",
"<. c #9B837D",
"1. c #7E7B86",
"2. c #867C8C",
"3. c #7C8184",
"4. c #888784",
"5. c #86838C",
"6. c #928782",
"7. c #9D8680",
"8. c #9D8B81",
"9. c #9B8C87",
"0. c #9A918A",
"q. c #868393",
"w. c #898697",
"e. c #868994",
"r. c #8D8A94",
"t. c #959999",
"y. c #A48C85",
"u. c #A88F88",
"i. c #A4928C",
"p. c #A9948E",
"a. c #A79690",
"s. c #A89690",
"d. c #AC9C97",
"f. c #B89796",
"g. c #AEA09B",
"h. c #A3A3A8",
"j. c #A8A8AC",
"k. c #BFA8A0",
"l. c #AEAEB2",
"z. c #B7B7BB",
"x. c #C2ABA4",
"c. c #C6B0A8",
"v. c #CBB5AD",
"b. c #CFB8AF",
"n. c #D2BCB3",
"m. c #D9C2B9",
"M. c #B7BEC5",
"N. c #BFBFC3",
"B. c #BFC0C7",
"V. c #BEE7ED",
"C. c #C0C0C4",
"Z. c #C6C6CC",
"A. c #CACACF",
"S. c #CDCED3",
"D. c #D0D0D5",
"F. c #D4D4DD",
"G. c #D9D9DD",
"H. c #C0DFE5",
"J. c #CAE6EB",
"K. c #DAE2EA",
"L. c #C6F9FF",
"P. c #D9F7FC",
"I. c #D5F8FB",
"U. c #E1E1E6",
"Y. c #E4E5EA",
"T. c #E7E8EE",
"R. c #EAEAEE",
"E. c #EDEDF1",
"W. c #E5FFFF",
"Q. c #FFFFFF",
/* pixels */
"d =.Y Y Y Y $.C g ,.*.>.* 8 7 7 f d.*.& & 8 % =.C i a.i.i.$.d h ",
"$.Y Y Y Y Y $.& w 0 = * * v <.m.X & $ c p.* 6.;.x g i y u d g f ",
"p.Y Y Y #.Q *.6.q 0 c <.<.$ z &.n.l m.,.c 8 * 7 q & ;.#.$.k k p ",
"u a.Y Y Y ;.% * * v <.&.v.&.:.l &.&.&.l @ c y.n 0 6.#.! Y #.$.V ",
"f i p.9.a.% v y.<.<.X z &.v.&.&.&.&.&.v.b.&.z & = & ;.@.Y Y Y $.",
"g g B h B D * % z :.:.&.&.@.&.&.z z &.&.@.v.&.:.9.v & =.Y Y Y *.",
"p V $.Y >.& c 7.<.a &.&.@.c.&.&.&.=.l &.&.&.&.&.z * P & d.#.=.i ",
"s.Y ! ;.% c 7.:.e n.&.%.x.x.&.&.c.@.&.v.@.&.&.v.&.c = 8 & s d p ",
"p.Y Y $ v u.$ z n.&.l &.c.@.&.&.k.c.a &.c.&.&.&.v.:.% 6.-.%.C i ",
"u s.Y *.& * c c &.:.z &.&.=.z &.c.&.z &.v.a :.l &.&.c % *.Y %.C ",
"g u p.0.g.$ y.z <.x c &.,.x M j &.&.x ,.&.z &.,.x ,.7.% ;.Y $.C ",
"C C B V $ u.c c I 3 N <.G 2 ` ( 6.9.3 M 7.x ,.6.3 b c p.$ ;.V p ",
"Y Y Y ;.* n = M 3 3 K b 1 _ , } 4.D 3 3 U 3 G 0.3 L = = 8 ,.r $.",
"Y Y Y *.8 0 w c I 3 3 W ) ..> } S ` 1 ` 2 3 3 b b c = 6.7 u a.Y ",
"Y Y Y *.% 6.8 c c L I 3 _ / ( , ` < ( ( _ 3 I c c c = g.u a.Y Y ",
"Y Y Y Y T ;.* c b 7 c N D ( ..( F )  ./ F N c 8 b c 0 f p p.Y Y ",
"Y Y Y #.*.x 8 n 8 w c c G ( | } m A }  .( M c w 8 N 7 k C t a.#.",
"Y Y Y *.i d Z 9 y = v c L ( } } A m } } } k v 7 y 9 C $.$.V r p.",
"i.i.a.y V %.;.: 4.Q @ v $ D } } { # ( } } A X 3.~ - ,.#.! @.V y ",
"i i u #.Y #.-.- H Q.S.. K.  { } [ V.o } } ] H.H G.r.- $.Y Y &.V ",
"C g p p.#.-.+ Q M.G.U.M.z.W.] } ] P.P.[ } ] W.k 5.1.: *.Y Y Y $.",
"C g p a.2.+ f.k U.Q.G.j.F.I.] } ' Q.Q.' } ] P.N.~ ; 5 *.Y Y Y Y ",
"i k C s 4 X.V T.Q.Q.S.G.Q.Q.^ ^ ' Q.Q.L.' ' Q.T.R o.4 ! Y Y Y %.",
"k $.! ;.4 R T.Q.Q.Z.Q.Q.Q.Q.Q.Q.Q.Q.Q.Q.J.Q.Q.U.E + -.Y Y Y %.i ",
"$.#.Y ! O M.Q.Q.Q.Q.Q.Q.Q.Q.Q.Q.Q.Q.Q.Q.S.Q.D.R.K d a.i.i.%.p p ",
"Y Y Y Y R Y.Q.Q.Q.Q.Q.Q.Q.Q.Q.Q.Q.Q.Q.Q.S.Q.G.z.~ p d p i f f $.",
"Y Y Y Y G Q.Q.Q.S.Q.S.Q.Q.Q.Q.Q.Q.Q.Q.S.G.G.U.z.~ g g C C g p i.",
"Y Y Y Y D Q.Q.G.G.Q.h.G.Q.Q.Q.Q.A.Q.Q.G.j.U.l.B.~ p x *.*.C u i.",
"Y Y Y Y @.Z C B.E.l.z.Y.D.Q.Q.S.F.Q.Q.G.z.T.z.A.~ h #.Y Y $.h a.",
"p.Y Y Y i.i.t ~ G S.x B.R.G.G.G.U.Q.K.M.V S.J ~ u #.Y Y Y Y $.r ",
"r 8.7.i.: t p u t Q ~ K k C.z.N.D 6 O.O.+.E g t u i.$.! Y #.! u ",
"e.5.q.d g.r.r.r.r.5.r.g t.1.1.2.5.w.w.s t.5.5.e.e.5.e.p t.5.5.e."
};
